<svg width="32" height="32" viewBox="0 0 32 32" fill="none" xmlns="http://www.w3.org/2000/svg">
<g id="Group 427319775">
<g id="Group 427319458">
<g id="Group 427319160">
<circle id="Ellipse 974" opacity="0.25" cx="16" cy="16" r="16" fill="#DC93FF"/>
</g>
</g>
<g id="Group 427319774">
<g id="Group">
<g id="Vector">
<path d="M18.2589 12.5772C16.41 12.5938 14.5603 12.5953 12.7114 12.5756C12.2693 12.5709 12.1349 12.7151 12.1436 13.1524C12.1697 14.4351 12.1523 15.7186 12.1515 17.0021C12.1507 18.3139 12.1602 19.625 12.1444 20.936C12.1404 21.3284 12.1934 21.5522 12.6797 21.5459C14.5571 21.5222 16.4345 21.5277 18.3119 21.5435C18.7152 21.5467 18.8465 21.4088 18.8441 21.0117C18.8314 18.3888 18.8267 15.7651 18.8449 13.1414C18.848 12.6883 18.6835 12.5733 18.2589 12.5772ZM15.2475 15.5326V15.5232V15.3538H17.888V15.7524H15.2475V15.5326ZM13.556 13.4943C14.1973 13.4888 14.8386 13.4928 15.48 13.4928C16.1498 13.4928 16.8188 13.5022 17.4878 13.4888C17.7599 13.4833 17.8991 13.5487 17.8872 13.8528C17.8777 14.1144 17.8208 14.2728 17.5155 14.2712C16.1767 14.2657 14.8379 14.2641 13.4998 14.2751C13.1329 14.2783 13.1171 14.0679 13.1068 13.7914C13.0925 13.4195 13.3511 13.4967 13.556 13.4943ZM15.2475 17.6308V17.6245V17.2321H17.888V17.6308H17.6508H15.2475ZM13.0245 18.4683C12.9083 18.5227 12.811 18.258 12.7588 18.0972C12.7217 17.9854 12.713 17.8081 12.8253 17.8459C13.3377 18.0192 13.6248 17.6213 14.0036 17.4504C14.1704 17.3747 14.2179 17.5355 14.2764 17.7316C13.8699 17.979 13.465 18.2611 13.0245 18.4683ZM13.3567 16.2559C13.2325 16.3316 13.1099 16.5451 12.9415 16.3749C12.8324 16.2646 12.7296 16.0857 12.7351 15.9423C12.743 15.7391 12.8869 15.7154 13.0949 15.7989C13.4452 15.94 13.6342 15.5846 13.8936 15.4554C14.1127 15.3467 14.1846 15.4381 14.3056 15.5783C14.0439 15.9053 13.6817 16.0574 13.3567 16.2559ZM15.2475 19.7636V19.4422V19.3689H17.888V19.7676H15.2475V19.7636ZM15.2475 20.5886C15.2475 20.4948 15.2483 20.401 15.2483 20.3073H18.3221C18.3245 20.3853 18.3269 20.4625 18.3293 20.5405C17.306 20.6752 16.2747 20.587 15.2475 20.5886ZM15.2167 18.4313C15.2151 18.3754 15.2135 18.3194 15.2119 18.2635H18.3285C18.3316 18.3194 18.3348 18.3754 18.3372 18.4313H15.2167ZM15.2238 16.4048C15.2214 16.3544 15.2198 16.3032 15.2174 16.252H18.3316C18.3332 16.3032 18.3348 16.3544 18.3372 16.4048H15.2238Z" fill="#FAFAFA"/>
<path d="M18.2589 12.5772C16.41 12.5938 14.5603 12.5953 12.7114 12.5756C12.2693 12.5709 12.1349 12.7151 12.1436 13.1524C12.1697 14.4351 12.1523 15.7186 12.1515 17.0021C12.1507 18.3139 12.1602 19.625 12.1444 20.936C12.1404 21.3284 12.1934 21.5522 12.6797 21.5459C14.5571 21.5222 16.4345 21.5277 18.3119 21.5435C18.7152 21.5467 18.8465 21.4088 18.8441 21.0117C18.8314 18.3888 18.8267 15.7651 18.8449 13.1414C18.848 12.6883 18.6835 12.5733 18.2589 12.5772ZM15.2475 15.5326V15.5232V15.3538H17.888V15.7524H15.2475V15.5326ZM13.556 13.4943C14.1973 13.4888 14.8386 13.4928 15.48 13.4928C16.1498 13.4928 16.8188 13.5022 17.4878 13.4888C17.7599 13.4833 17.8991 13.5487 17.8872 13.8528C17.8777 14.1144 17.8208 14.2728 17.5155 14.2712C16.1767 14.2657 14.8379 14.2641 13.4998 14.2751C13.1329 14.2783 13.1171 14.0679 13.1068 13.7914C13.0925 13.4195 13.3511 13.4967 13.556 13.4943ZM15.2475 17.6308V17.6245V17.2321H17.888V17.6308H17.6508H15.2475ZM13.0245 18.4683C12.9083 18.5227 12.811 18.258 12.7588 18.0972C12.7217 17.9854 12.713 17.8081 12.8253 17.8459C13.3377 18.0192 13.6248 17.6213 14.0036 17.4504C14.1704 17.3747 14.2179 17.5355 14.2764 17.7316C13.8699 17.979 13.465 18.2611 13.0245 18.4683ZM13.3567 16.2559C13.2325 16.3316 13.1099 16.5451 12.9415 16.3749C12.8324 16.2646 12.7296 16.0857 12.7351 15.9423C12.743 15.7391 12.8869 15.7154 13.0949 15.7989C13.4452 15.94 13.6342 15.5846 13.8936 15.4554C14.1127 15.3467 14.1846 15.4381 14.3056 15.5783C14.0439 15.9053 13.6817 16.0574 13.3567 16.2559ZM15.2475 19.7636V19.4422V19.3689H17.888V19.7676H15.2475V19.7636ZM15.2475 20.5886C15.2475 20.4948 15.2483 20.401 15.2483 20.3073H18.3221C18.3245 20.3853 18.3269 20.4625 18.3293 20.5405C17.306 20.6752 16.2747 20.587 15.2475 20.5886ZM15.2167 18.4313C15.2151 18.3754 15.2135 18.3194 15.2119 18.2635H18.3285C18.3316 18.3194 18.3348 18.3754 18.3372 18.4313H15.2167ZM15.2238 16.4048C15.2214 16.3544 15.2198 16.3032 15.2174 16.252H18.3316C18.3332 16.3032 18.3348 16.3544 18.3372 16.4048H15.2238Z" fill="#F2984A"/>
</g>
<g id="Vector_2">
<path d="M12.9273 10.3136C14.6346 10.2876 16.342 10.2876 18.0493 10.3144C18.4914 10.3215 18.5855 10.1466 18.5206 9.77784C18.4771 9.53202 18.4297 9.2862 18.3712 9.04352C18.2502 8.54321 17.2324 7.61585 16.7492 7.66549C16.2668 7.71591 16.2811 8.28872 16.0106 8.57945C15.9679 8.62515 15.9861 8.76618 15.7995 8.64091C15.6231 8.41242 16.2051 7.71276 15.4365 7.77186C14.8252 7.81913 15.374 8.37381 15.1035 8.7583C14.9082 8.42739 14.7493 8.15162 14.5824 7.88059C14.4756 7.70725 14.3808 7.61349 14.1166 7.70567C13.0111 8.09332 12.5572 8.64012 12.4694 9.75972C12.4417 10.1103 12.4654 10.3207 12.9273 10.3136Z" fill="#FAFAFA"/>
<path d="M12.9273 10.3136C14.6346 10.2876 16.342 10.2876 18.0493 10.3144C18.4914 10.3215 18.5855 10.1466 18.5206 9.77784C18.4771 9.53202 18.4297 9.2862 18.3712 9.04352C18.2502 8.54321 17.2324 7.61585 16.7492 7.66549C16.2668 7.71591 16.2811 8.28872 16.0106 8.57945C15.9679 8.62515 15.9861 8.76618 15.7995 8.64091C15.6231 8.41242 16.2051 7.71276 15.4365 7.77186C14.8252 7.81913 15.374 8.37381 15.1035 8.7583C14.9082 8.42739 14.7493 8.15162 14.5824 7.88059C14.4756 7.70725 14.3808 7.61349 14.1166 7.70567C13.0111 8.09332 12.5572 8.64012 12.4694 9.75972C12.4417 10.1103 12.4654 10.3207 12.9273 10.3136Z" fill="#F2984A"/>
</g>
<g id="Vector_3">
<path d="M11.0705 21.6089C11.0072 21.3387 10.9613 21.0645 10.9028 20.7926C10.7233 19.9638 9.95938 19.7731 9.34176 19.569C8.857 19.4083 8.83644 20.1048 8.57626 20.3916C8.52644 20.4468 8.45764 20.4838 8.2718 20.624C8.26468 20.1584 8.68698 19.6596 8.11443 19.5809C7.35051 19.4761 7.95864 20.275 7.65497 20.5177C7.27539 20.2167 7.30386 19.5627 6.80802 19.5155C5.90729 19.4288 4.83417 20.9045 5.02159 21.8437C5.07853 22.1305 5.24618 22.1069 5.44072 22.1069C7.17575 22.1069 8.91077 22.1021 10.6458 22.1116C11.0199 22.114 11.1551 21.9713 11.0705 21.6089Z" fill="#FAFAFA"/>
<path d="M11.0705 21.6089C11.0072 21.3387 10.9613 21.0645 10.9028 20.7926C10.7233 19.9638 9.95938 19.7731 9.34176 19.569C8.857 19.4083 8.83644 20.1048 8.57626 20.3916C8.52644 20.4468 8.45764 20.4838 8.2718 20.624C8.26468 20.1584 8.68698 19.6596 8.11443 19.5809C7.35051 19.4761 7.95864 20.275 7.65497 20.5177C7.27539 20.2167 7.30386 19.5627 6.80802 19.5155C5.90729 19.4288 4.83417 20.9045 5.02159 21.8437C5.07853 22.1305 5.24618 22.1069 5.44072 22.1069C7.17575 22.1069 8.91077 22.1021 10.6458 22.1116C11.0199 22.114 11.1551 21.9713 11.0705 21.6089Z" fill="#F2984A"/>
</g>
<g id="Vector_4">
<path d="M24.972 19.855C24.099 19.2578 23.7637 19.7463 23.4386 20.4302C23.4228 20.4633 23.3509 20.4688 23.2876 20.4948C23.0836 20.2135 23.6316 19.5084 22.8882 19.5832C22.3102 19.6407 22.7522 20.1623 22.6826 20.5626C22.205 20.3065 22.2335 19.5864 21.8009 19.5627C21.4094 19.5407 20.98 19.8495 20.5981 20.067C19.9963 20.4089 20.0817 21.0684 19.9441 21.6223C19.8484 22.0076 20.0208 22.1124 20.379 22.1108C22.0895 22.1013 23.8 22.1084 25.5106 22.1006C25.6822 22.0998 25.8894 22.1801 25.9676 21.8831C26.1408 21.2284 25.596 20.2821 24.972 19.855Z" fill="#FAFAFA"/>
<path d="M24.972 19.855C24.099 19.2578 23.7637 19.7463 23.4386 20.4302C23.4228 20.4633 23.3509 20.4688 23.2876 20.4948C23.0836 20.2135 23.6316 19.5084 22.8882 19.5832C22.3102 19.6407 22.7522 20.1623 22.6826 20.5626C22.205 20.3065 22.2335 19.5864 21.8009 19.5627C21.4094 19.5407 20.98 19.8495 20.5981 20.067C19.9963 20.4089 20.0817 21.0684 19.9441 21.6223C19.8484 22.0076 20.0208 22.1124 20.379 22.1108C22.0895 22.1013 23.8 22.1084 25.5106 22.1006C25.6822 22.0998 25.8894 22.1801 25.9676 21.8831C26.1408 21.2284 25.596 20.2821 24.972 19.855Z" fill="#F2984A"/>
</g>
<g id="Vector_5">
<path d="M19.5479 22.8908C16.8418 24.4398 14.1246 24.4327 11.4382 22.8711C10.8111 22.5063 10.2259 22.5268 9.51733 22.6316C13.1669 26.1259 18.8947 25.427 21.3502 22.6473C20.2407 22.4882 20.243 22.4929 19.5479 22.8908Z" fill="#FAFAFA"/>
<path d="M19.5479 22.8908C16.8418 24.4398 14.1246 24.4327 11.4382 22.8711C10.8111 22.5063 10.2259 22.5268 9.51733 22.6316C13.1669 26.1259 18.8947 25.427 21.3502 22.6473C20.2407 22.4882 20.243 22.4929 19.5479 22.8908Z" fill="#F2984A"/>
</g>
<g id="Vector_6">
<path d="M7.84478 14.5501C8.2473 12.3377 9.49915 10.6193 11.4461 9.4792C12.0653 9.11676 12.301 8.64087 12.4829 8.00977C9.61619 8.37456 6.55182 12.5615 6.75743 15.7524C7.38216 15.5862 7.70956 15.2915 7.84478 14.5501Z" fill="#FAFAFA"/>
<path d="M7.84478 14.5501C8.2473 12.3377 9.49915 10.6193 11.4461 9.4792C12.0653 9.11676 12.301 8.64087 12.4829 8.00977C9.61619 8.37456 6.55182 12.5615 6.75743 15.7524C7.38216 15.5862 7.70956 15.2915 7.84478 14.5501Z" fill="#F2984A"/>
</g>
<g id="Vector_7">
<path d="M19.8516 9.66907C21.6522 10.8084 22.776 12.496 23.1651 14.5722C23.2971 15.2758 23.5763 15.5862 24.2548 15.7548C24.3623 11.6002 20.5277 8.14922 18.436 7.99557C18.6693 8.75432 19.1675 9.23573 19.8516 9.66907Z" fill="#FAFAFA"/>
<path d="M19.8516 9.66907C21.6522 10.8084 22.776 12.496 23.1651 14.5722C23.2971 15.2758 23.5763 15.5862 24.2548 15.7548C24.3623 11.6002 20.5277 8.14922 18.436 7.99557C18.6693 8.75432 19.1675 9.23573 19.8516 9.66907Z" fill="#F2984A"/>
</g>
<g id="Vector_8">
<path d="M22.9808 15.8438C22.1038 15.836 21.3707 16.5624 21.3881 17.4212C21.4055 18.2816 22.1797 19.0246 23.0164 18.9836C23.8159 18.9442 24.5458 18.1729 24.5332 17.3818C24.5189 16.5506 23.8143 15.8517 22.9808 15.8438Z" fill="#FAFAFA"/>
<path d="M22.9808 15.8438C22.1038 15.836 21.3707 16.5624 21.3881 17.4212C21.4055 18.2816 22.1797 19.0246 23.0164 18.9836C23.8159 18.9442 24.5458 18.1729 24.5332 17.3818C24.5189 16.5506 23.8143 15.8517 22.9808 15.8438Z" fill="#F2984A"/>
</g>
<g id="Vector_9">
<path d="M8.05829 18.9852C8.9179 18.9687 9.63595 18.2028 9.60115 17.3409C9.56715 16.4994 8.86333 15.8313 8.02271 15.8439C7.14887 15.8573 6.43951 16.5963 6.4751 17.4567C6.50989 18.2769 7.25879 19.0002 8.05829 18.9852Z" fill="#FAFAFA"/>
<path d="M8.05829 18.9852C8.9179 18.9687 9.63595 18.2028 9.60115 17.3409C9.56715 16.4994 8.86333 15.8313 8.02271 15.8439C7.14887 15.8573 6.43951 16.5963 6.4751 17.4567C6.50989 18.2769 7.25879 19.0002 8.05829 18.9852Z" fill="#F2984A"/>
</g>
<g id="Vector_10">
<path d="M15.3843 7.12497C16.251 7.17697 16.9849 6.54587 17.0363 5.70597C17.0924 4.78964 16.4543 4.04666 15.5725 4.00175C14.7398 3.9592 14.0028 4.63758 13.9608 5.48378C13.9166 6.35914 14.5373 7.07455 15.3843 7.12497Z" fill="#FAFAFA"/>
<path d="M15.3843 7.12497C16.251 7.17697 16.9849 6.54587 17.0363 5.70597C17.0924 4.78964 16.4543 4.04666 15.5725 4.00175C14.7398 3.9592 14.0028 4.63758 13.9608 5.48378C13.9166 6.35914 14.5373 7.07455 15.3843 7.12497Z" fill="#F2984A"/>
</g>
<g id="Vector_11">
<path d="M19.4135 18.6118C19.8326 17.0927 20.2003 15.5563 20.6914 14.0601C20.9706 13.2091 20.7697 12.9247 19.9038 12.7671C19.3352 12.6639 19.2411 12.7301 19.249 13.2714C19.2751 15.0481 19.2593 16.8256 19.2593 18.6031C19.3107 18.6062 19.3621 18.6086 19.4135 18.6118Z" fill="#FAFAFA"/>
<path d="M19.4135 18.6118C19.8326 17.0927 20.2003 15.5563 20.6914 14.0601C20.9706 13.2091 20.7697 12.9247 19.9038 12.7671C19.3352 12.6639 19.2411 12.7301 19.249 13.2714C19.2751 15.0481 19.2593 16.8256 19.2593 18.6031C19.3107 18.6062 19.3621 18.6086 19.4135 18.6118Z" fill="#F2984A"/>
</g>
<g id="Vector_12">
<path d="M14.7216 12.1376C15.4223 12.1376 16.1221 12.1376 16.8228 12.1376C16.8378 12.0864 16.8528 12.0352 16.8686 11.9839C16.1822 11.8011 15.4942 11.6262 14.811 11.4316C14.4108 11.3174 14.4053 11.6349 14.3547 11.8492C14.2835 12.1462 14.5215 12.1376 14.7216 12.1376Z" fill="#FAFAFA"/>
<path d="M14.7216 12.1376C15.4223 12.1376 16.1221 12.1376 16.8228 12.1376C16.8378 12.0864 16.8528 12.0352 16.8686 11.9839C16.1822 11.8011 15.4942 11.6262 14.811 11.4316C14.4108 11.3174 14.4053 11.6349 14.3547 11.8492C14.2835 12.1462 14.5215 12.1376 14.7216 12.1376Z" fill="#F2984A"/>
</g>
</g>
</g>
</g>
</svg>
