<svg width="32" height="32" viewBox="0 0 32 32" fill="none" xmlns="http://www.w3.org/2000/svg">
<g id="Group 427319780">
<circle id="Ellipse 976" opacity="0.25" cx="16" cy="16" r="16" fill="#5E7970"/>
<g id="Group 427319779">
<path id="Vector" d="M12.5262 15.6613C12.5262 15.7667 12.5274 15.8726 12.5258 15.9781C12.5208 16.2682 12.397 16.408 12.1201 16.4185C11.9012 16.427 11.682 16.4257 11.4635 16.4181C11.201 16.4092 11.062 16.2707 11.05 15.9988C11.0401 15.7739 11.041 15.5478 11.0504 15.3229C11.0615 15.0552 11.2027 14.9121 11.4643 14.8998C11.6622 14.8909 11.8609 14.8955 12.0592 14.8977C12.3974 14.9019 12.5241 15.0361 12.5249 15.3864V15.6613H12.5262Z" fill="#827825"/>
<path id="Vector_2" d="M18.4333 15.3467C18.4292 15.057 18.2901 14.9096 18.0058 14.899C17.8145 14.8918 17.6224 14.8931 17.4311 14.8956C17.0855 14.9007 16.9559 15.0401 16.9559 15.4009V15.6542C16.9555 15.6542 16.9555 15.6542 16.9551 15.6542C16.9551 15.7529 16.9542 15.8515 16.9551 15.9502C16.9579 16.2611 17.0871 16.4081 17.3817 16.4169C17.6002 16.4241 17.8194 16.4225 18.0383 16.414C18.2905 16.4038 18.425 16.2628 18.4329 16.0019C18.439 15.7838 18.4361 15.5652 18.4333 15.3467ZM18.4333 15.3467C18.4292 15.057 18.2901 14.9096 18.0058 14.899C17.8145 14.8918 17.6224 14.8931 17.4311 14.8956C17.0855 14.9007 16.9559 15.0401 16.9559 15.4009V15.6542C16.9555 15.6542 16.9555 15.6542 16.9551 15.6542C16.9551 15.7529 16.9542 15.8515 16.9551 15.9502C16.9579 16.2611 17.0871 16.4081 17.3817 16.4169C17.6002 16.4241 17.8194 16.4225 18.0383 16.414C18.2905 16.4038 18.425 16.2628 18.4329 16.0019C18.439 15.7838 18.4361 15.5652 18.4333 15.3467ZM18.4333 15.3467C18.4292 15.057 18.2901 14.9096 18.0058 14.899C17.8145 14.8918 17.6224 14.8931 17.4311 14.8956C17.0855 14.9007 16.9559 15.0401 16.9559 15.4009V15.6542C16.9555 15.6542 16.9555 15.6542 16.9551 15.6542C16.9551 15.7529 16.9542 15.8515 16.9551 15.9502C16.9579 16.2611 17.0871 16.4081 17.3817 16.4169C17.6002 16.4241 17.8194 16.4225 18.0383 16.414C18.2905 16.4038 18.425 16.2628 18.4329 16.0019C18.439 15.7838 18.4361 15.5652 18.4333 15.3467ZM18.4333 15.3467C18.4292 15.057 18.2901 14.9096 18.0058 14.899C17.8145 14.8918 17.6224 14.8931 17.4311 14.8956C17.0855 14.9007 16.9559 15.0401 16.9559 15.4009V15.6542C16.9555 15.6542 16.9555 15.6542 16.9551 15.6542C16.9551 15.7529 16.9542 15.8515 16.9551 15.9502C16.9579 16.2611 17.0871 16.4081 17.3817 16.4169C17.6002 16.4241 17.8194 16.4225 18.0383 16.414C18.2905 16.4038 18.425 16.2628 18.4329 16.0019C18.439 15.7838 18.4361 15.5652 18.4333 15.3467ZM18.4333 15.3467C18.4292 15.057 18.2901 14.9096 18.0058 14.899C17.8145 14.8918 17.6224 14.8931 17.4311 14.8956C17.0855 14.9007 16.9559 15.0401 16.9559 15.4009V15.6542C16.9555 15.6542 16.9555 15.6542 16.9551 15.6542C16.9551 15.7529 16.9542 15.8515 16.9551 15.9502C16.9579 16.2611 17.0871 16.4081 17.3817 16.4169C17.6002 16.4241 17.8194 16.4225 18.0383 16.414C18.2905 16.4038 18.425 16.2628 18.4329 16.0019C18.439 15.7838 18.4361 15.5652 18.4333 15.3467ZM18.4333 15.3467C18.4292 15.057 18.2901 14.9096 18.0058 14.899C17.8145 14.8918 17.6224 14.8931 17.4311 14.8956C17.0855 14.9007 16.9559 15.0401 16.9559 15.4009V15.6542C16.9555 15.6542 16.9555 15.6542 16.9551 15.6542C16.9551 15.7529 16.9542 15.8515 16.9551 15.9502C16.9579 16.2611 17.0871 16.4081 17.3817 16.4169C17.6002 16.4241 17.8194 16.4225 18.0383 16.414C18.2905 16.4038 18.425 16.2628 18.4329 16.0019C18.439 15.7838 18.4361 15.5652 18.4333 15.3467ZM20.65 17.5605C20.65 16.4479 20.6508 15.3353 20.6487 14.2222C20.6475 13.7004 20.3595 13.4002 19.8535 13.3858C19.7169 13.3815 19.5799 13.3828 19.4429 13.3828H14.7429V13.3849C13.0668 13.3849 11.3907 13.3959 9.71459 13.379C9.13614 13.373 8.82676 13.7309 8.83293 14.2866C8.84404 15.3005 8.83499 16.3149 8.83458 17.3288C8.83417 18.2445 8.84116 19.1597 8.83211 20.0754C8.82594 20.6658 9.19004 21.0135 9.69937 20.9728C9.84912 20.961 10.0009 20.9597 10.1503 20.9728C10.2889 20.9847 10.3194 20.9326 10.3173 20.7975C10.3103 20.2554 10.3099 19.7133 10.3157 19.1712C10.3239 18.4266 10.7715 17.9391 11.4808 17.9366C13.6563 17.9285 15.8319 17.9294 18.0075 17.9378C18.711 17.9408 19.1644 18.4304 19.1701 19.1534C19.1734 19.5477 19.1709 19.942 19.1726 20.3363C19.1734 20.5396 19.1022 20.8115 19.2014 20.928C19.3153 21.0622 19.5856 20.9542 19.7876 20.9707C20.3686 21.019 20.6623 20.5722 20.6541 20.0957C20.6401 19.2508 20.65 18.4058 20.65 17.5605ZM13.2585 16.1057C13.2412 16.6584 12.7903 17.1306 12.2534 17.1615C12.0971 17.1704 11.9395 17.1628 11.7828 17.1628C11.5783 17.1683 11.3705 17.1937 11.1706 17.142C10.6724 17.0129 10.3716 16.6423 10.3214 16.065C10.2959 15.7728 10.293 15.475 10.3317 15.1815C10.4132 14.5598 10.7962 14.1845 11.4018 14.1502C11.6873 14.1337 11.9757 14.1388 12.2612 14.1583C12.8134 14.1964 13.2482 14.6733 13.2593 15.2408C13.2651 15.5288 13.2676 15.8177 13.2585 16.1057ZM19.1462 16.2111C19.0516 16.7833 18.6505 17.1361 18.0885 17.167C17.9519 17.1742 17.8149 17.1679 17.6779 17.1679C17.4405 17.1602 17.1986 17.2005 16.9678 17.1111C16.5733 16.9582 16.3153 16.6732 16.2483 16.2425C16.1874 15.8524 16.1845 15.4547 16.2503 15.065C16.3371 14.5509 16.7317 14.1909 17.2385 14.1574C17.5245 14.1384 17.8133 14.1362 18.0996 14.1519C18.667 14.1828 19.0771 14.5589 19.152 15.1375C19.1977 15.4924 19.2051 15.8566 19.1462 16.2111ZM18.0058 14.899C17.8145 14.8918 17.6224 14.8931 17.4311 14.8956C17.0855 14.9007 16.9559 15.0401 16.9559 15.4009V15.6542C16.9555 15.6542 16.9555 15.6542 16.9551 15.6542C16.9551 15.7529 16.9542 15.8515 16.9551 15.9502C16.9579 16.2611 17.0871 16.4081 17.3817 16.4169C17.6002 16.4241 17.8194 16.4225 18.0383 16.414C18.2905 16.4038 18.425 16.2628 18.4329 16.0019C18.439 15.7838 18.4361 15.5652 18.4333 15.3467C18.4292 15.057 18.2901 14.9096 18.0058 14.899ZM18.4333 15.3467C18.4292 15.057 18.2901 14.9096 18.0058 14.899C17.8145 14.8918 17.6224 14.8931 17.4311 14.8956C17.0855 14.9007 16.9559 15.0401 16.9559 15.4009V15.6542C16.9555 15.6542 16.9555 15.6542 16.9551 15.6542C16.9551 15.7529 16.9542 15.8515 16.9551 15.9502C16.9579 16.2611 17.0871 16.4081 17.3817 16.4169C17.6002 16.4241 17.8194 16.4225 18.0383 16.414C18.2905 16.4038 18.425 16.2628 18.4329 16.0019C18.439 15.7838 18.4361 15.5652 18.4333 15.3467ZM18.4333 15.3467C18.4292 15.057 18.2901 14.9096 18.0058 14.899C17.8145 14.8918 17.6224 14.8931 17.4311 14.8956C17.0855 14.9007 16.9559 15.0401 16.9559 15.4009V15.6542C16.9555 15.6542 16.9555 15.6542 16.9551 15.6542C16.9551 15.7529 16.9542 15.8515 16.9551 15.9502C16.9579 16.2611 17.0871 16.4081 17.3817 16.4169C17.6002 16.4241 17.8194 16.4225 18.0383 16.414C18.2905 16.4038 18.425 16.2628 18.4329 16.0019C18.439 15.7838 18.4361 15.5652 18.4333 15.3467ZM18.4333 15.3467C18.4292 15.057 18.2901 14.9096 18.0058 14.899C17.8145 14.8918 17.6224 14.8931 17.4311 14.8956C17.0855 14.9007 16.9559 15.0401 16.9559 15.4009V15.6542C16.9555 15.6542 16.9555 15.6542 16.9551 15.6542C16.9551 15.7529 16.9542 15.8515 16.9551 15.9502C16.9579 16.2611 17.0871 16.4081 17.3817 16.4169C17.6002 16.4241 17.8194 16.4225 18.0383 16.414C18.2905 16.4038 18.425 16.2628 18.4329 16.0019C18.439 15.7838 18.4361 15.5652 18.4333 15.3467ZM18.4333 15.3467C18.4292 15.057 18.2901 14.9096 18.0058 14.899C17.8145 14.8918 17.6224 14.8931 17.4311 14.8956C17.0855 14.9007 16.9559 15.0401 16.9559 15.4009V15.6542C16.9555 15.6542 16.9555 15.6542 16.9551 15.6542C16.9551 15.7529 16.9542 15.8515 16.9551 15.9502C16.9579 16.2611 17.0871 16.4081 17.3817 16.4169C17.6002 16.4241 17.8194 16.4225 18.0383 16.414C18.2905 16.4038 18.425 16.2628 18.4329 16.0019C18.439 15.7838 18.4361 15.5652 18.4333 15.3467Z" fill="#827825"/>
<path id="Vector_3" d="M24.1169 9.04475C24.1186 8.17228 24.126 7.29981 24.1305 6.42734C24.126 6.36466 24.1095 6.30028 24.1186 6.23972C24.1478 6.04617 24.0746 5.99958 23.8882 6C21.3847 6.00763 18.8813 6.00593 16.3778 6.00636C16.3762 6.03431 16.3725 6.06226 16.3725 6.09021C16.3721 8.28663 16.3737 10.4831 16.3671 12.6795C16.3667 12.8514 16.4404 12.8489 16.5621 12.8489C17.9371 12.8459 19.3116 12.8463 20.6861 12.8476C21.04 12.848 21.163 12.9755 21.1667 13.3419C21.1687 13.5744 21.1671 13.8065 21.1671 14.039C21.1675 14.499 21.1671 14.9589 21.1671 15.4189C21.2296 15.3892 21.2543 15.3515 21.2778 15.313C21.739 14.5676 22.2022 13.8234 22.6593 13.0755C22.7564 12.9162 22.879 12.84 23.0625 12.8442C23.3562 12.8514 23.6508 12.8391 23.9445 12.8493C24.0758 12.8535 24.1219 12.8205 24.121 12.6769C24.1153 11.4661 24.1149 10.2556 24.1169 9.04475ZM18.1959 11.7575C18.165 11.9722 17.9897 12.0963 17.8075 12.0721C17.6108 12.0459 17.4891 11.9027 17.4816 11.6821C17.4779 11.5631 17.4812 11.4436 17.4812 11.3242C17.4816 11.3242 17.4816 11.3242 17.4821 11.3242C17.4821 11.1912 17.4759 11.0574 17.4837 10.9244C17.4948 10.7342 17.6298 10.5898 17.8017 10.5707C17.9922 10.55 18.1531 10.6563 18.1893 10.8591C18.2424 11.1565 18.2386 11.4597 18.1959 11.7575ZM19.693 11.6143C19.6885 11.8938 19.5383 12.0772 19.3227 12.0793C19.1022 12.081 18.9578 11.9023 18.957 11.6164C18.9549 11.0332 18.9553 10.45 18.957 9.86724C18.9578 9.59407 19.0969 9.42889 19.3194 9.42847C19.5362 9.42804 19.6856 9.59534 19.6922 9.86512C19.6992 10.1599 19.6938 10.4551 19.6938 10.7503C19.6938 11.0383 19.6975 11.3263 19.693 11.6143ZM21.1412 11.7735C21.1185 11.9646 20.9556 12.0836 20.7828 12.0759C20.5998 12.0675 20.4479 11.9218 20.4393 11.7265C20.4302 11.5232 20.4372 11.3195 20.4372 11.1158C20.4372 11.1158 20.4368 11.1158 20.4364 11.1158C20.4364 10.9265 20.4302 10.7367 20.4381 10.5474C20.4467 10.3437 20.5841 10.2023 20.7693 10.1904C20.9626 10.1777 21.1169 10.2861 21.142 10.4958C21.1922 10.9206 21.1914 11.3487 21.1412 11.7735ZM22.642 11.6325C22.6317 11.9565 22.4129 12.1403 22.1545 12.0505C21.9953 11.995 21.9126 11.8765 21.9122 11.7015C21.9117 11.3856 21.9118 11.0696 21.9118 10.7537H21.9097C21.9097 10.4517 21.906 10.1497 21.9109 9.84776C21.9155 9.58305 22.052 9.42847 22.268 9.42889C22.4828 9.42931 22.6309 9.58094 22.6404 9.84183C22.6519 10.1574 22.6437 10.4737 22.6441 10.7897C22.6441 11.0705 22.6511 11.3517 22.642 11.6325ZM22.9971 8.304C22.986 8.51873 22.8173 8.66654 22.6379 8.6623C22.4425 8.65764 22.2977 8.50179 22.2791 8.27562C22.2746 8.22141 22.2738 8.16678 22.2713 8.11002C22.1895 8.10706 22.1635 8.1744 22.1232 8.2159C21.7883 8.55769 21.4571 8.90414 21.1218 9.2455C20.9054 9.46531 20.7524 9.47887 20.508 9.29421C20.1612 9.03247 19.816 8.76819 19.4778 8.49501C19.3807 8.41623 19.331 8.42301 19.2466 8.51237C18.9043 8.87619 18.5526 9.2311 18.2045 9.58941C18.1222 9.67411 18.0412 9.75543 17.919 9.78169C17.7676 9.81388 17.6512 9.75924 17.5598 9.64277C17.4714 9.52969 17.452 9.40009 17.5166 9.26753C17.5438 9.21247 17.5816 9.15953 17.624 9.11548C18.0819 8.64113 18.5398 8.16678 19.0018 7.69666C19.2207 7.47431 19.3647 7.46753 19.6128 7.65685C19.9584 7.9207 20.3035 8.18456 20.6434 8.45562C20.7273 8.52296 20.7746 8.5344 20.8565 8.44715C21.1358 8.14856 21.4255 7.86014 21.7348 7.54334C21.6159 7.5264 21.5287 7.52216 21.4456 7.50014C21.2638 7.45228 21.1716 7.32692 21.1761 7.13167C21.1807 6.93388 21.2913 6.79327 21.4674 6.78311C21.8764 6.76024 22.2878 6.75981 22.6967 6.77887C22.8633 6.7865 22.9773 6.91821 22.9938 7.10287C23.0296 7.50311 23.0176 7.90419 22.9971 8.304Z" fill="#827825"/>
<path id="Vector_4" d="M20.6574 25.3615C20.638 25.6995 20.638 25.6995 20.3011 25.6995C16.5967 25.6995 12.8919 25.6995 9.18757 25.6995C8.85268 25.6995 8.85268 25.6995 8.82471 25.3615C8.94895 24.7304 9.15302 24.5589 9.79071 24.5589C13.1195 24.5585 16.4482 24.5585 19.7765 24.5589C20.3245 24.5585 20.5928 24.805 20.6574 25.3615Z" fill="#827825"/>
<path id="Vector_5" d="M14.7426 24.0105C14.2773 24.0105 13.812 24.0118 13.3467 24.0101C13.0759 24.0089 12.9126 23.875 12.8982 23.6493C12.8859 23.4523 13.0262 23.3011 13.2701 23.2486C13.5137 23.1961 13.6322 23.0695 13.6297 22.8645C13.6272 22.6616 13.5046 22.5375 13.2578 22.4884C13.0286 22.4431 12.8916 22.2961 12.8986 22.1026C12.906 21.8887 13.071 21.7311 13.3166 21.7298C14.2678 21.7256 15.2194 21.7252 16.1706 21.7303C16.4125 21.7315 16.5684 21.8764 16.5849 22.0835C16.6009 22.2881 16.466 22.4401 16.2261 22.488C15.9933 22.5341 15.853 22.6756 15.8501 22.8657C15.8472 23.058 15.983 23.1999 16.2167 23.2482C16.4676 23.3003 16.6071 23.4612 16.5841 23.6713C16.5606 23.8831 16.3985 24.0089 16.1385 24.0097C15.6732 24.0118 15.2079 24.0105 14.7426 24.0105Z" fill="#827825"/>
<path id="Vector_6" d="M14.7511 20.9712C13.5885 20.9712 12.4258 20.9678 11.2632 20.975C11.1015 20.9759 11.0212 20.9488 11.0463 20.762C11.0702 20.5841 10.9686 20.344 11.0912 20.2402C11.1944 20.1525 11.4174 20.2097 11.5873 20.2097C13.7962 20.2085 16.0055 20.2106 18.2144 20.2034C18.3909 20.2029 18.4621 20.2394 18.437 20.4304C18.4143 20.6028 18.5049 20.831 18.4028 20.9382C18.3004 21.0458 18.0795 20.9678 17.9108 20.9683C16.8576 20.9708 15.8043 20.9695 14.7511 20.9695C14.7511 20.9704 14.7511 20.9708 14.7511 20.9712Z" fill="#827825"/>
<path id="Vector_7" d="M14.74 19.4533C13.5773 19.4533 12.4151 19.4507 11.2524 19.4563C11.1047 19.4571 11.0368 19.4389 11.0434 19.2572C11.0586 18.8256 11.1742 18.6922 11.5959 18.6922C13.7024 18.6914 15.8084 18.6909 17.9148 18.6922C18.3328 18.6922 18.5418 18.9789 18.434 19.3898C18.4048 19.5011 18.3238 19.4507 18.2682 19.4512C17.4615 19.4554 16.6543 19.4546 15.8475 19.455C15.478 19.455 15.109 19.455 14.7395 19.455C14.74 19.4541 14.74 19.4537 14.74 19.4533Z" fill="#827825"/>
<path id="Vector_8" d="M21.1509 15.7734C21.7836 15.9314 22.2284 16.518 22.2469 17.2075C22.2642 17.864 21.8223 18.4595 21.1509 18.6716C21.1509 17.7081 21.1509 16.7484 21.1509 15.7734Z" fill="#827825"/>
<path id="Vector_9" d="M8.10224 18.6273C7.46414 18.4689 7.03174 17.9094 7.0013 17.2195C6.97373 16.5981 7.38803 15.9629 7.95208 15.7668C8.00721 15.7477 8.10224 15.6617 8.10224 15.8214C8.10224 16.7557 8.10224 17.6896 8.10224 18.6273Z" fill="#827825"/>
<path id="Vector_10" d="M16.0901 11.9561C15.8008 12.1738 15.5252 12.3796 15.2512 12.5872C15.1652 12.6524 15.0677 12.6287 14.9735 12.6299C14.7916 12.6325 14.6094 12.6308 14.4086 12.5906C14.5197 12.5075 14.6328 12.4275 14.7414 12.3415C14.9825 12.1509 15.0043 11.921 14.7937 11.6956C14.5707 11.4576 14.3411 11.2255 14.1095 10.9964C14.0342 10.9219 14.0149 10.8774 14.1186 10.8096C14.2576 10.719 14.3745 10.5974 14.4621 10.4526C14.5201 10.3573 14.5604 10.3747 14.6287 10.4458C15.1097 10.9464 15.5939 11.4436 16.0901 11.9561Z" fill="#827825"/>
<path id="Vector_11" d="M13.2705 8.82814C13.6724 8.82602 13.9995 9.15764 14.0007 9.56931C14.0024 10.0055 13.6691 10.352 13.254 10.3461C12.8677 10.3401 12.5221 9.97929 12.5254 9.58498C12.5291 9.16315 12.8562 8.83068 13.2705 8.82814Z" fill="#827825"/>
<path id="Vector_12" d="M18.4328 16.0028C18.4249 16.2637 18.2904 16.4047 18.0382 16.4149C17.8193 16.4234 17.6001 16.425 17.3816 16.4178C17.087 16.409 16.9578 16.262 16.955 15.9511C16.9541 15.8524 16.955 15.7538 16.955 15.6551C16.9554 15.6551 16.9554 15.6551 16.9558 15.6551V15.4018C16.9558 15.041 17.0854 14.9016 17.431 14.8965C17.6223 14.894 17.8144 14.8927 18.0057 14.8999C18.29 14.9105 18.4291 15.0579 18.4332 15.3476C18.436 15.5661 18.4389 15.7847 18.4328 16.0028Z" fill="#827825"/>
<path id="Vector_13" d="M12.5258 15.9781C12.5208 16.2682 12.397 16.408 12.1201 16.4185C11.9012 16.427 11.682 16.4257 11.4635 16.4181C11.201 16.4092 11.062 16.2707 11.05 15.9988C11.0401 15.7739 11.041 15.5478 11.0504 15.3229C11.0615 15.0552 11.2027 14.9121 11.4643 14.8998C11.6622 14.8909 11.8609 14.8955 12.0592 14.8977C12.3974 14.9019 12.5241 15.0361 12.5249 15.3864V15.6613H12.5262C12.5262 15.7667 12.5274 15.8726 12.5258 15.9781Z" fill="#827825"/>
<path id="Vector_14" d="M18.4328 16.0028C18.4249 16.2637 18.2904 16.4047 18.0382 16.4149C17.8193 16.4234 17.6001 16.425 17.3816 16.4178C17.087 16.409 16.9578 16.262 16.955 15.9511C16.9541 15.8524 16.955 15.7538 16.955 15.6551C16.9554 15.6551 16.9554 15.6551 16.9558 15.6551V15.4018C16.9558 15.041 17.0854 14.9016 17.431 14.8965C17.6223 14.894 17.8144 14.8927 18.0057 14.8999C18.29 14.9105 18.4291 15.0579 18.4332 15.3476C18.436 15.5661 18.4389 15.7847 18.4328 16.0028Z" fill="#827825"/>
<path id="Vector_15" d="M12.5258 15.9781C12.5208 16.2682 12.397 16.408 12.1201 16.4185C11.9012 16.427 11.682 16.4257 11.4635 16.4181C11.201 16.4092 11.062 16.2707 11.05 15.9988C11.0401 15.7739 11.041 15.5478 11.0504 15.3229C11.0615 15.0552 11.2027 14.9121 11.4643 14.8998C11.6622 14.8909 11.8609 14.8955 12.0592 14.8977C12.3974 14.9019 12.5241 15.0361 12.5249 15.3864V15.6613H12.5262C12.5262 15.7667 12.5274 15.8726 12.5258 15.9781Z" fill="#827825"/>
</g>
</g>
</svg>
