<svg width="20" height="19" viewBox="0 0 20 19" fill="none" xmlns="http://www.w3.org/2000/svg">
<g id="Group 427319778">
<g id="Group">
<path id="Vector" d="M19.9951 3.52539C19.994 2.51655 19.225 1.79541 18.1832 1.79488C17.3511 1.79435 16.519 1.79009 15.6869 1.79914C15.5102 1.80073 15.4476 1.75872 15.4564 1.5795C15.4718 1.27902 15.4624 0.977488 15.4603 0.675951C15.4575 0.273371 15.2122 0.0032109 14.851 2.00387e-05C14.4843 -0.00263901 14.2346 0.259544 14.2286 0.662656C14.2242 0.972702 14.2236 1.28275 14.2302 1.59279C14.233 1.72894 14.2099 1.7986 14.0392 1.79807C11.3508 1.79275 8.6624 1.79329 5.974 1.79807C5.81208 1.79807 5.77256 1.74542 5.77695 1.59971C5.78628 1.28115 5.78573 0.962066 5.78025 0.642979C5.77366 0.264862 5.51239 -0.0021072 5.16276 0.000551849C4.80599 0.0032109 4.55076 0.265394 4.54527 0.642979C4.54088 0.944516 4.53155 1.24605 4.54911 1.54653C4.56064 1.7433 4.50465 1.80233 4.29389 1.79914C3.48045 1.78637 2.66537 1.822 1.85303 1.7869C0.95671 1.74755 -0.00163043 2.45114 0.00166284 3.60304C0.0164825 8.1213 0.018678 12.6396 1.62047e-05 17.1578C-0.00437482 18.2682 0.884258 19.0112 1.88267 19C4.58918 18.9692 7.2957 18.9894 10.0028 18.9894C12.7367 18.9899 15.4707 18.9904 18.2046 18.9894C19.2118 18.9889 19.9956 18.2581 19.9967 17.2924C20.0017 12.7034 20.0011 8.11439 19.9951 3.52539ZM14.2291 1.93475C14.2291 2.19587 14.2264 2.40646 14.2302 2.61706C14.2374 3.0223 14.4805 3.28555 14.8428 3.28714C15.2023 3.28821 15.4559 3.01432 15.4597 2.61866C15.4613 2.40753 15.4597 2.1964 15.4597 1.97889C15.7577 2.13152 15.9092 2.48996 15.8417 2.86116C15.7676 3.27172 15.3922 3.60995 14.9602 3.65569C14.5288 3.70142 14.1062 3.47328 13.9283 3.09835C13.7401 2.70215 13.8389 2.26607 14.2291 1.93475ZM4.54472 1.9874C4.54472 2.21076 4.54033 2.43199 4.54582 2.65322C4.5557 3.02655 4.81916 3.29033 5.17099 3.28714C5.51514 3.28342 5.76213 3.03347 5.77421 2.66492C5.78189 2.43678 5.77585 2.20863 5.77585 1.96081C6.12823 2.19374 6.25557 2.61866 6.11396 3.00741C5.95808 3.43552 5.53874 3.69451 5.06506 3.65462C4.61717 3.61686 4.2379 3.28023 4.16435 2.85425C4.09848 2.47507 4.25601 2.11131 4.54472 1.9874ZM18.4626 17.0079C18.4626 17.3509 18.4615 17.3509 18.113 17.3509C12.6829 17.3509 7.25343 17.3493 1.82339 17.3557C1.59176 17.3557 1.53742 17.2902 1.53797 17.0749C1.54401 13.3022 1.54401 9.52954 1.53687 5.75634C1.53687 5.55478 1.59176 5.50798 1.79539 5.50852C4.53814 5.51543 7.28033 5.51277 10.0225 5.51277C12.7378 5.51277 15.4526 5.51596 18.1673 5.50745C18.405 5.50692 18.4692 5.55691 18.4686 5.79569C18.4599 9.53326 18.4626 13.2703 18.4626 17.0079Z" fill="#43BCCD"/>
<path id="Vector_2" d="M6.94562 9.13452C7.71295 9.1276 8.48028 9.1276 9.24706 9.13452C9.39416 9.13558 9.43258 9.09197 9.42929 8.95477C9.42051 8.58303 9.42599 8.21129 9.42599 7.83956C9.42599 7.45931 9.4216 7.07854 9.42874 6.69829C9.43093 6.57278 9.39361 6.53077 9.26023 6.53184C8.48412 6.53715 7.70746 6.53715 6.93135 6.53184C6.78919 6.53077 6.74198 6.56959 6.74308 6.71106C6.74967 7.454 6.75022 8.19747 6.74308 8.94094C6.74143 9.09357 6.79138 9.13558 6.94562 9.13452Z" fill="#43BCCD"/>
<path id="Vector_3" d="M9.42927 10.3481C9.43036 10.2311 9.3903 10.1976 9.27174 10.1981C8.48739 10.2019 7.7025 10.2013 6.9176 10.1965C6.78917 10.196 6.74196 10.2338 6.74251 10.3625C6.74745 11.1139 6.748 11.8659 6.74251 12.6173C6.74141 12.7572 6.79026 12.8008 6.93242 12.7982C7.31554 12.7902 7.6992 12.7955 8.08287 12.7955C8.46599 12.7955 8.84965 12.7918 9.23332 12.7976C9.36175 12.7992 9.43146 12.7843 9.42982 12.6301C9.42213 11.8696 9.42488 11.1086 9.42927 10.3481Z" fill="#43BCCD"/>
<path id="Vector_4" d="M13.0771 10.1997C12.3015 10.204 11.526 10.2035 10.7504 10.1971C10.6165 10.196 10.5792 10.2412 10.5814 10.3651C10.5879 10.7363 10.5841 11.1081 10.5841 11.4793H10.5792C10.5792 11.8595 10.5814 12.2398 10.5775 12.62C10.5764 12.7311 10.5874 12.8003 10.7356 12.7992C11.5205 12.7928 12.3054 12.7934 13.0903 12.7976C13.2204 12.7982 13.2648 12.7583 13.2637 12.6306C13.2593 11.8792 13.2582 11.1272 13.2654 10.3758C13.267 10.2316 13.2149 10.1987 13.0771 10.1997Z" fill="#43BCCD"/>
<path id="Vector_5" d="M5.42519 13.8628C4.64798 13.8687 3.87077 13.8682 3.09356 13.8634C2.96512 13.8628 2.91901 13.8974 2.91956 14.0277C2.92505 14.7802 2.92505 15.5333 2.91956 16.2863C2.91901 16.4139 2.96128 16.4575 3.09191 16.457C3.86857 16.4533 4.64633 16.4522 5.42299 16.4575C5.55966 16.4586 5.59424 16.4107 5.59205 16.2879C5.58601 15.9162 5.58985 15.5439 5.58985 15.1716C5.58985 14.7909 5.58491 14.4095 5.59205 14.0288C5.59479 13.9049 5.56021 13.8618 5.42519 13.8628Z" fill="#43BCCD"/>
<path id="Vector_6" d="M9.23385 13.8623C8.85019 13.8735 8.46652 13.866 8.08231 13.866C7.70797 13.866 7.33309 13.8735 6.95875 13.8628C6.79299 13.8581 6.73975 13.9011 6.74195 14.0687C6.75183 14.7946 6.75073 15.5205 6.74304 16.2464C6.74085 16.4081 6.7886 16.4597 6.9582 16.4581C7.71675 16.4501 8.47475 16.4501 9.2333 16.4581C9.39303 16.4597 9.4309 16.4097 9.42925 16.2624C9.42212 15.5274 9.42212 14.7924 9.42925 14.058C9.4309 13.9107 9.39412 13.8575 9.23385 13.8623Z" fill="#43BCCD"/>
<path id="Vector_7" d="M13.0618 13.8628C12.2939 13.8692 11.526 13.8692 10.7581 13.8618C10.6099 13.8602 10.5748 13.9054 10.5759 14.0421C10.5825 14.7861 10.5819 15.5301 10.5759 16.2741C10.5753 16.4092 10.611 16.4597 10.7587 16.4581C11.5265 16.4517 12.2944 16.4512 13.0623 16.4575C13.2182 16.4586 13.2681 16.4118 13.2637 16.2602C13.2539 15.8885 13.2605 15.5162 13.2605 15.144C13.2605 14.7813 13.2528 14.4175 13.2643 14.0548C13.2687 13.9001 13.2143 13.8612 13.0618 13.8628Z" fill="#43BCCD"/>
<path id="Vector_8" d="M5.5926 6.70255C5.5937 6.58555 5.57669 6.52918 5.43288 6.53024C4.65567 6.53716 3.87846 6.53716 3.10125 6.53077C2.9525 6.52971 2.91518 6.58183 2.91792 6.71584C2.92506 7.08758 2.92067 7.45985 2.92067 7.83158H2.92232C2.92232 8.19481 2.93 8.55857 2.91902 8.92126C2.91408 9.07762 2.94811 9.13824 3.1265 9.13611C3.88505 9.12654 4.64414 9.1292 5.40269 9.13452C5.54046 9.13558 5.59535 9.10793 5.5937 8.96115C5.58657 8.20864 5.58876 7.45559 5.5926 6.70255Z" fill="#43BCCD"/>
<path id="Vector_9" d="M17.0883 6.69616C17.0888 6.56853 17.0471 6.53077 16.9148 6.5313C16.1376 6.53715 15.3604 6.53715 14.5832 6.53183C14.4526 6.5313 14.4114 6.56693 14.4125 6.6951C14.418 7.44814 14.4202 8.20119 14.4109 8.95423C14.4092 9.12016 14.4811 9.13717 14.6211 9.13451C14.996 9.12707 15.3708 9.13186 15.7457 9.13186C16.1299 9.13186 16.5142 9.12707 16.8978 9.13451C17.0383 9.13717 17.0905 9.09729 17.0888 8.95529C17.0833 8.20225 17.0839 7.44921 17.0883 6.69616Z" fill="#43BCCD"/>
<path id="Vector_10" d="M5.5904 11.5016C5.5904 11.1299 5.5871 10.7581 5.59259 10.3864C5.59424 10.2646 5.5871 10.1976 5.42299 10.1997C4.64633 10.2098 3.87021 10.2077 3.09355 10.2019C2.96402 10.2008 2.91736 10.2306 2.91791 10.3614C2.9234 11.1128 2.9234 11.8648 2.91846 12.6163C2.91791 12.7529 2.96182 12.7992 3.10673 12.7982C3.87406 12.7918 4.64194 12.7918 5.40927 12.7982C5.55582 12.7992 5.59644 12.754 5.59314 12.6173C5.58491 12.2456 5.5904 11.8733 5.5904 11.5016Z" fill="#43BCCD"/>
<path id="Vector_11" d="M16.8935 10.1965C16.1272 10.2066 15.3604 10.2072 14.5937 10.2008C14.4488 10.1992 14.4087 10.2359 14.412 10.3742C14.4208 10.7454 14.4147 11.1171 14.4147 11.4888C14.4147 11.8691 14.4191 12.2499 14.4125 12.6301C14.4103 12.753 14.4433 12.7998 14.5799 12.7987C15.3561 12.7928 16.1322 12.7939 16.9088 12.7982C17.0367 12.7992 17.0894 12.7625 17.0883 12.6338C17.0834 11.8819 17.0839 11.1299 17.0834 10.3779C17.0834 10.2534 17.0461 10.1944 16.8935 10.1965Z" fill="#43BCCD"/>
<path id="Vector_12" d="M13.0469 6.52918C12.2812 6.53609 11.515 6.53131 10.7488 6.53397C10.6955 6.5345 10.6165 6.49355 10.5912 6.58608C10.5912 7.41783 10.5918 8.25012 10.5923 9.08187C10.6094 9.09836 10.6264 9.12867 10.6434 9.12867C11.4733 9.1308 12.3026 9.12814 13.1325 9.13292C13.2791 9.13346 13.2632 9.04943 13.2632 8.95955C13.2626 8.21768 13.2571 7.47527 13.267 6.73339C13.2687 6.56428 13.2099 6.52758 13.0469 6.52918Z" fill="#43BCCD"/>
</g>
</g>
</svg>
