<svg width="32" height="32" viewBox="0 0 32 32" fill="none" xmlns="http://www.w3.org/2000/svg">
<g id="Group 427319181">
<circle id="Ellipse 968" opacity="0.25" cx="16" cy="16" r="16" fill="#ACB413"/>
<path id="Vector" d="M18.8464 21.0188C18.8464 20.236 18.8319 19.4532 18.8508 18.6715C18.8653 18.0612 18.6165 17.7528 17.9772 17.7616C17.0121 17.7738 16.0469 17.7771 15.0818 17.7572C14.4101 17.7428 14.1412 18.0358 14.1502 18.7003C14.1714 20.236 14.1301 21.7717 14.1569 23.3075C14.1658 23.8404 13.9973 24.0128 13.4595 23.9907C12.4966 23.9509 11.5293 23.9907 10.5653 23.9742C9.58116 23.9576 9.19288 23.5739 9.18396 22.591C9.16722 20.6783 9.16164 18.7655 9.17392 16.8539C9.17949 16.0534 8.95188 15.5072 8.02692 15.4464C7.56054 15.4154 7.19904 15.1446 7.05511 14.6868C6.8989 14.1915 7.08635 13.7868 7.47128 13.4518C10.1971 11.0847 12.9161 8.71088 15.6453 6.34924C16.1808 5.88598 16.7465 5.87935 17.2977 6.35477C20.0525 8.73299 22.8073 11.1101 25.5621 13.4872C25.9559 13.8266 26.1065 14.2523 25.9213 14.7333C25.7395 15.2065 25.3512 15.463 24.8324 15.4586C23.9119 15.4519 23.6151 15.9804 23.6151 16.7931C23.6128 18.7058 23.6117 20.6186 23.5972 22.5302C23.5894 23.6281 23.2324 23.9697 22.1233 23.9786C21.2753 23.9852 20.4251 23.9509 19.5794 23.9963C19.0148 24.0272 18.7895 23.8724 18.8263 23.2809C18.8742 22.5302 18.8374 21.775 18.8374 21.021C18.843 21.0188 18.8452 21.0188 18.8464 21.0188Z" fill="#C48543"/>
</g>
</svg>
