<svg width="32" height="32" viewBox="0 0 32 32" fill="none" xmlns="http://www.w3.org/2000/svg">
<g id="Group 427319777">
<g id="Group 427319721">
<circle id="Ellipse 974" opacity="0.25" cx="16" cy="16" r="16" fill="#CCF924"/>
</g>
<g id="Group 427319776">
<path id="Vector" d="M14.6935 24.09C12.5331 24.09 10.3723 24.0921 8.21191 24.088C7.90157 24.0875 7.58704 24.0911 7.34683 23.8308C7.16 23.6288 7.04434 23.4212 7.03701 23.1371C6.94962 19.7325 7.04539 16.3279 7.03806 12.9228C7.03701 12.5299 7.45883 12.099 7.88692 12.0712C8.21662 12.0494 8.54894 12.0641 8.87969 12.0525C8.99849 12.0484 9.02779 12.0854 9.02308 12.1957C9.01419 12.4059 9.09269 12.652 9.00372 12.8175C8.89905 13.0135 8.6175 12.8763 8.41549 12.9041C8.06485 12.9532 7.91936 13.0955 7.91936 13.4418C7.91936 16.5452 7.91936 19.6485 7.91936 22.7518C7.91936 23.0556 8.11091 23.2429 8.42857 23.25C9.06443 23.2642 9.06233 23.2637 9.34441 22.7128C10.2644 20.9153 11.1651 19.1077 12.1212 17.3274C12.1369 17.2976 12.1584 17.2702 12.1715 17.2398C12.396 16.7133 12.7576 16.5006 13.3888 16.491C15.5318 16.4591 17.6754 16.4895 19.818 16.45C20.0791 16.4454 20.3403 16.4363 20.6014 16.4398C20.7464 16.4419 20.805 16.4125 20.805 16.2484C20.8055 15.5578 20.8338 14.8672 20.8354 14.176C20.8359 13.9785 20.8955 13.9694 21.0604 14.0312C21.4513 14.1775 21.6795 14.4899 21.6879 14.9001C21.6973 15.3548 21.7229 15.8095 21.724 16.2641C21.7245 16.4287 21.769 16.4717 21.9417 16.4702C22.9528 16.4621 23.9644 16.4905 24.9744 16.4606C25.6935 16.4393 26.0133 16.7978 25.6433 17.4849C24.5835 19.4505 23.54 21.4237 22.4457 23.3721C22.2918 23.646 22.0704 23.8505 21.8056 24.0212C21.7099 24.0824 21.6136 24.089 21.5089 24.089C19.2381 24.0895 16.9658 24.09 14.6935 24.09Z" fill="#9498FF"/>
<path id="Vector_2" d="M9.75525 20.4662C9.67257 20.2257 9.67309 20.0065 9.67256 19.7938C9.66838 15.9573 9.66942 12.1208 9.671 8.28384C9.671 8.08181 9.68565 7.87978 9.7024 7.67826C9.72909 7.35471 10.0358 7.06762 10.3723 7.05446C12.7236 6.95977 15.076 7.01496 17.4284 7.0261C17.5917 7.02711 17.7189 7.07572 17.8387 7.19623C18.5651 7.92383 19.2695 8.67068 19.9719 9.42005C20.1006 9.55777 20.1561 9.7041 20.155 9.896C20.1477 11.8186 20.1461 13.7416 20.1566 15.6642C20.1576 15.8783 20.0891 15.9123 19.8934 15.9062C19.4517 15.8925 19.4522 15.9021 19.4511 15.4854C19.447 13.9674 19.4422 12.45 19.437 10.932C19.4365 10.7973 19.4339 10.6621 19.4218 10.5279C19.3868 10.134 19.3847 10.1228 18.9728 10.1071C18.529 10.0899 18.0842 10.0975 17.6399 10.093C17.2929 10.0894 17.15 9.95069 17.149 9.62663C17.1469 9.07068 17.1369 8.51472 17.1411 7.95928C17.1427 7.77598 17.0799 7.71674 16.8847 7.70965C14.8029 7.63725 12.721 7.66054 10.6392 7.71016C10.4743 7.71421 10.4429 7.76383 10.4314 7.91016C10.3681 8.69346 10.3932 9.47777 10.3916 10.2611C10.3869 13.1284 10.3854 15.9953 10.3963 18.8627C10.3974 19.1999 10.3482 19.5067 10.1718 19.7953C10.0415 20.007 9.95464 20.2455 9.75525 20.4662Z" fill="#9498FF"/>
<path id="Vector_3" d="M14.8881 14.2374C13.7823 14.2368 12.6765 14.2374 11.5712 14.2368C11.3158 14.2368 11.1337 14.0713 11.1222 13.8293C11.1096 13.567 11.2243 13.4434 11.5278 13.4206C12.5708 13.3417 13.6159 13.3918 14.66 13.3822C15.8527 13.3715 17.0453 13.3801 18.238 13.3811C18.5044 13.3811 18.7127 13.5624 18.7169 13.7963C18.7211 14.0348 18.4987 14.2374 18.2323 14.2374C17.117 14.2379 16.0023 14.2379 14.8881 14.2374Z" fill="#9498FF"/>
<path id="Vector_4" d="M14.8123 11.7006C13.7326 11.7006 12.653 11.7011 11.5733 11.7001C11.3216 11.7001 11.1327 11.5229 11.1232 11.2839C11.1123 11.0241 11.2122 10.9284 11.5084 10.8905C11.812 10.8515 12.1165 10.8555 12.4211 10.8555C14.2764 10.8565 16.1316 10.8596 17.9868 10.8641C18.1082 10.8646 18.2297 10.891 18.3505 10.891C18.6096 10.8915 18.7028 11.0439 18.7101 11.2606C18.7174 11.4854 18.5918 11.6206 18.3631 11.6616C18.0878 11.7107 17.8089 11.7112 17.5305 11.7112C16.6246 11.7112 15.7187 11.7112 14.8128 11.7112C14.8123 11.7077 14.8123 11.7041 14.8123 11.7006Z" fill="#9498FF"/>
</g>
</g>
</svg>
