<svg width="22" height="23" viewBox="0 0 22 23" fill="none" xmlns="http://www.w3.org/2000/svg">
<g id="Group 427320338">
<g id="Group">
<path id="Vector" d="M21.0947 13.0482C20.4747 11.9161 19.8829 10.7696 19.2876 9.62486C19.1819 9.42224 19.0531 9.26944 18.8373 9.17404C17.7048 8.67172 16.5757 8.1635 15.4484 7.64936C15.1908 7.53201 14.9171 7.43746 14.7772 7.75067C14.6348 8.07063 14.9103 8.19136 15.161 8.30364C16.0521 8.70465 16.9399 9.11579 17.8541 9.53453C17.7407 9.59531 17.6596 9.65103 17.5692 9.6848C15.3827 10.5071 13.1919 11.3167 11.013 12.1584C10.6745 12.2893 10.4237 12.166 10.1543 12.0638C7.95151 11.2289 5.75303 10.383 3.46244 9.50582C4.41671 9.1065 5.31299 8.73166 6.21012 8.35767C6.48046 8.24539 6.77467 8.11369 6.61093 7.76164C6.45999 7.43746 6.18198 7.5776 5.93553 7.68228C4.7962 8.16772 3.65603 8.65146 2.51415 9.13183C2.28219 9.22976 2.13466 9.38088 2.01953 9.6122C1.4132 10.8397 0.782989 12.0554 0.16813 13.2787C-0.121818 13.8553 -0.0680921 13.9591 0.577467 14.1423C3.30724 14.919 6.04042 15.6881 8.76592 16.4783C9.19573 16.6033 9.43707 16.5264 9.60848 16.101C9.93936 15.2829 10.3095 14.4809 10.7017 13.5868C11.1469 14.4826 11.5682 15.2896 11.9494 16.1145C12.1378 16.5214 12.3596 16.6151 12.7979 16.4707C15.4356 15.6029 18.0809 14.7536 20.7288 13.9178C21.2456 13.7565 21.3573 13.5269 21.0947 13.0482Z" fill="#4AADBB"/>
<path id="Vector_2" d="M18.7409 15.2965C17.032 15.858 15.311 16.3864 13.6003 16.9428C12.0227 17.4561 12.0261 17.4645 11.1196 16.1619C11.1136 16.1534 11.0846 16.161 11.0113 16.161C11.0113 18.3619 11.0121 20.5645 11.0104 22.7671C11.0104 23.1023 11.1767 22.985 11.355 22.9124C13.8349 21.9043 16.3156 20.8972 18.8006 19.9001C19.1059 19.7777 19.2262 19.5996 19.2219 19.2703C19.2057 18.0538 19.198 16.8373 19.2219 15.6216C19.2296 15.1952 19.1008 15.1784 18.7409 15.2965Z" fill="#4AADBB"/>
<path id="Vector_3" d="M10.2847 21.2204C10.2839 19.678 10.2847 18.1356 10.2847 16.5257C9.67667 17.2931 9.39952 17.3826 8.49045 17.1251C6.39856 16.5316 4.30838 15.933 2.1423 15.315C2.1423 16.7553 2.14145 18.1415 2.14316 19.5277C2.14316 19.7363 2.28216 19.8317 2.4638 19.9051C4.95906 20.9148 7.45261 21.9262 9.9436 22.9469C10.2199 23.06 10.3001 22.9967 10.2932 22.7139C10.2796 22.2158 10.2847 21.7185 10.2847 21.2204Z" fill="#4AADBB"/>
<path id="Vector_4" d="M8.12779 6.4077C8.54139 7.20634 8.95073 7.97459 9.05136 8.89396C9.11276 9.45706 9.65598 9.18691 9.99625 9.2325C10.3945 9.28568 10.2555 8.96656 10.2598 8.78505C10.2734 8.14766 10.2683 7.51027 10.264 6.87287C10.2623 6.64071 10.3433 6.47608 10.5932 6.46173C10.8695 6.44569 10.994 6.60187 10.9932 6.86781C10.9923 7.20634 10.9932 7.54488 10.9932 7.88342C10.9932 8.18227 10.9889 8.48113 10.9949 8.77999C10.9991 8.99949 10.9002 9.30257 11.3164 9.23841C11.6387 9.1886 12.147 9.42667 12.1845 8.8813C12.245 8.01596 12.5904 7.28992 13.0228 6.55966C13.7468 5.33637 13.4543 3.80325 12.3866 2.88219C11.4392 2.06498 10.05 2.0025 9.05306 2.73276C7.91459 3.56686 7.47711 5.15064 8.12779 6.4077Z" fill="#4AADBB"/>
<path id="Vector_5" d="M10.6172 9.838C10.4176 9.838 10.2181 9.83885 10.0185 9.838C9.77974 9.83632 9.63135 9.95451 9.62282 10.1858C9.61344 10.4543 9.77547 10.5691 10.0424 10.5649C10.421 10.5581 10.8005 10.5598 11.1792 10.5624C11.435 10.564 11.609 10.4805 11.5996 10.1926C11.5911 9.90554 11.4034 9.83463 11.1553 9.838C10.9762 9.83969 10.7963 9.838 10.6172 9.838Z" fill="#4AADBB"/>
<path id="Vector_6" d="M13.4834 2.47556C13.6948 2.49413 14.2355 1.93272 14.2313 1.66341C14.1639 1.52496 14.0752 1.34682 13.8364 1.34598C13.613 1.34513 13.1201 1.92006 13.1354 2.14715C13.1482 2.36328 13.2889 2.45868 13.4834 2.47556Z" fill="#4AADBB"/>
<path id="Vector_7" d="M13.1451 8.14267C13.2448 8.49472 13.4913 8.775 13.8512 8.86111C14.0558 8.91008 14.2102 8.71 14.2272 8.49303C14.2443 8.28197 13.6704 7.73238 13.4802 7.74166C13.2414 7.78219 13.0811 7.91811 13.1451 8.14267Z" fill="#4AADBB"/>
<path id="Vector_8" d="M10.6121 1.22319C11.0538 1.2443 10.9814 0.902386 10.9942 0.631388C10.9788 0.365456 11.0794 0.019321 10.6479 0.000747931C10.2164 -0.0178251 10.2573 0.313113 10.2676 0.592554C10.2778 0.85511 10.1797 1.20209 10.6121 1.22319Z" fill="#4AADBB"/>
<path id="Vector_9" d="M7.75519 2.4727C7.94536 2.444 8.09119 2.34353 8.09375 2.12235C8.0946 1.89187 7.54967 1.32033 7.34159 1.3541C7.14886 1.38533 7.01412 1.50268 7.00303 1.71289C6.99024 1.95181 7.53005 2.50647 7.75519 2.4727Z" fill="#4AADBB"/>
<path id="Vector_10" d="M7.00313 8.5142C7.01677 8.72272 7.15151 8.84091 7.3468 8.86793C7.56 8.89748 8.09725 8.32678 8.09384 8.09461C8.08873 7.87511 7.94375 7.77465 7.75187 7.74932C7.52759 7.71977 6.98778 8.28119 7.00313 8.5142Z" fill="#4AADBB"/>
<path id="Vector_11" d="M6.26044 5.5104C6.54356 5.50365 6.87274 5.52644 6.87274 5.12712C6.87274 4.70247 6.51542 4.79787 6.25958 4.7717C6.00119 4.78689 5.67457 4.71345 5.6669 5.09926C5.66093 5.48001 5.9594 5.518 6.26044 5.5104Z" fill="#4AADBB"/>
<path id="Vector_12" d="M14.8821 5.51205C15.2479 5.51965 15.5643 5.50529 15.5737 5.13468C15.5839 4.73113 15.2411 4.76659 14.9665 4.77757C14.7073 4.7877 14.3525 4.69568 14.3551 5.12708C14.3576 5.52218 14.6766 5.5036 14.8821 5.51205Z" fill="#4AADBB"/>
</g>
</g>
</svg>
