<svg width="32" height="32" viewBox="0 0 32 32" fill="none" xmlns="http://www.w3.org/2000/svg">
<g id="Group 427319781">
<circle id="Ellipse 976" opacity="0.25" cx="16" cy="16" r="16" fill="#43BCCD"/>
<g id="Group">
<path id="Vector" d="M23.63 16.7188C23.63 13.7524 23.6309 10.7865 23.6291 7.82018C23.6287 7.0108 23.0414 6.41292 22.2483 6.40886C21.6646 6.40569 21.0808 6.40705 20.4971 6.40886C20.2993 6.40931 20.0353 6.34062 19.92 6.44275C19.7852 6.56205 19.8956 6.83862 19.8743 7.04515C19.8588 7.19247 19.908 7.23631 20.0557 7.2345C20.7504 7.22636 21.4446 7.23043 22.1392 7.23133C22.6315 7.23179 22.8209 7.42475 22.8214 7.92683C22.8218 9.63596 22.8218 11.3446 22.8218 13.0538C22.8218 17.2019 22.8223 21.35 22.8218 25.4981C22.8218 25.9355 22.6187 26.1646 22.2226 26.1646C17.9519 26.166 13.6817 26.166 9.41103 26.1646C9.02778 26.1646 8.80955 25.9396 8.80911 25.5469C8.80822 19.6444 8.80822 13.7425 8.80911 7.84006C8.80911 7.45096 9.03222 7.23269 9.41945 7.23179C9.98855 7.23088 10.5572 7.2354 11.1263 7.22998C11.3308 7.22772 11.6098 7.32352 11.7185 7.1875C11.8214 7.0587 11.7411 6.78439 11.7575 6.57561C11.769 6.42829 11.7109 6.40343 11.581 6.40434C10.8495 6.41066 10.1181 6.40479 9.38663 6.40931C8.57978 6.41383 8.00093 7.01035 8.00093 7.8387C8.00004 13.7411 7.9996 19.6435 8.00048 25.5455C8.00048 26.396 8.582 26.9916 9.41812 26.9921C13.6666 26.9939 17.9151 26.9844 22.1631 27.0002C23.0095 27.0034 23.6464 26.3309 23.6393 25.4818C23.6154 22.5611 23.6304 19.6399 23.63 16.7188Z" fill="#8E9000"/>
<path id="Vector_2" d="M12.3838 8.05384C13.5282 8.04661 14.6726 8.04977 15.817 8.04977C16.969 8.04932 18.1209 8.04797 19.2724 8.05158C19.3913 8.05158 19.456 8.04571 19.4538 7.88889C19.4441 7.19702 19.4467 6.50469 19.4529 5.81236C19.4543 5.68266 19.4157 5.64831 19.291 5.65057C18.8852 5.65826 18.4789 5.64877 18.073 5.656C17.9319 5.65826 17.8534 5.65148 17.8428 5.46348C17.825 5.14579 17.6627 4.88097 17.4445 4.65592C16.8035 3.99387 15.6409 3.80271 14.7941 4.22389C14.2428 4.4982 13.8334 4.89272 13.7771 5.55838C13.766 5.68763 13.6843 5.65148 13.62 5.65193C13.1991 5.65464 12.7781 5.66097 12.3576 5.64967C12.2059 5.6456 12.1767 5.69802 12.178 5.83947C12.1846 6.50921 12.1878 7.17894 12.1762 7.84822C12.1731 8.02311 12.2241 8.05474 12.3838 8.05384ZM15.813 4.27721C16.108 4.27721 16.3329 4.50769 16.3276 4.80459C16.3222 5.0893 16.096 5.31706 15.8175 5.31842C15.5296 5.31977 15.2989 5.08116 15.3034 4.78561C15.3074 4.4991 15.5291 4.27767 15.813 4.27721Z" fill="#8E9000"/>
<path id="Vector_3" d="M11.7793 22.9515C12.1146 23.1241 12.4672 23.2091 12.9135 23.1991C13.1108 23.2055 13.3659 23.144 13.6178 23.0518C14.8119 22.6148 15.424 21.0959 14.8674 19.9508C14.8124 19.8378 14.772 19.7972 14.642 19.8726C14.0796 20.1985 13.5092 20.5103 12.941 20.8262C12.8687 20.8664 12.8026 20.9093 12.7591 20.9839C12.4118 21.5759 12.0667 22.1697 11.7136 22.7581C11.6466 22.8688 11.6834 22.9022 11.7793 22.9515Z" fill="#8E9000"/>
<path id="Vector_4" d="M21.1549 9.46019C17.5953 9.46968 14.0356 9.47013 10.476 9.45974C10.2241 9.45883 10.2795 9.5926 10.2658 9.73721C10.2489 9.91436 10.2897 9.98034 10.4862 9.97943C12.2587 9.9704 14.0312 9.97446 15.8033 9.97401C17.5828 9.97401 19.3629 9.97175 21.1425 9.97763C21.3088 9.97808 21.3891 9.9478 21.3634 9.75981C21.3447 9.61836 21.4259 9.45974 21.1549 9.46019Z" fill="#8E9000"/>
<path id="Vector_5" d="M21.3554 10.566C21.3465 10.4399 21.2259 10.4973 21.1571 10.4973C17.5966 10.4946 14.0361 10.4977 10.4756 10.4882C10.2276 10.4878 10.2702 10.6184 10.268 10.7657C10.2658 10.9203 10.2445 11.0337 10.484 11.0314C12.2569 11.017 14.0299 11.0238 15.8024 11.0233C17.5828 11.0233 19.3629 11.0233 21.1434 11.0224C21.2086 11.0224 21.315 11.0351 21.331 11.0039C21.4011 10.8683 21.366 10.7119 21.3554 10.566Z" fill="#8E9000"/>
<path id="Vector_6" d="M21.3598 13.7379C21.3598 13.6512 21.3864 13.5554 21.2379 13.5608C20.9797 13.5703 20.7207 13.5662 20.4625 13.5622C20.3707 13.5608 20.3294 13.5879 20.3299 13.6891C20.3321 14.705 20.3321 15.7209 20.329 16.7368C20.3285 16.8376 20.3618 16.8656 20.4563 16.8634C20.6998 16.8579 20.9442 16.8507 21.1873 16.8656C21.3448 16.8756 21.3643 16.8087 21.3625 16.6731C21.3558 16.1914 21.3598 15.7096 21.3598 15.2279C21.3603 14.7312 21.3603 14.2346 21.3598 13.7379Z" fill="#8E9000"/>
<path id="Vector_7" d="M21.3629 22.6537C21.3572 22.6171 21.3572 22.5778 21.3629 22.5412C21.3856 22.3961 21.3199 22.3699 21.1886 22.3703C19.4175 22.3744 17.6463 22.3776 15.8751 22.3681C15.589 22.3667 15.7092 22.5579 15.6862 22.6862C15.6573 22.8467 15.7088 22.9063 15.884 22.904C16.7547 22.8941 17.6255 22.8995 18.4966 22.8995C19.3749 22.8995 20.2531 22.8914 21.131 22.9054C21.3372 22.9086 21.3922 22.8412 21.3629 22.6537Z" fill="#8E9000"/>
<path id="Vector_8" d="M15.884 23.9417C16.7543 23.9263 17.625 23.9358 18.4957 23.9358C19.3886 23.9358 20.2815 23.9272 21.174 23.9412C21.4179 23.9453 21.3581 23.7971 21.3607 23.6665C21.3634 23.5368 21.4033 23.4116 21.1762 23.413C19.4126 23.4238 17.6494 23.4229 15.8858 23.4139C15.6871 23.413 15.6724 23.5006 15.6835 23.6529C15.6942 23.7926 15.6294 23.9462 15.884 23.9417Z" fill="#8E9000"/>
<path id="Vector_9" d="M15.8827 19.639C16.7689 19.625 17.6556 19.6331 18.5423 19.6331C18.5423 19.6327 18.5423 19.6318 18.5423 19.6313C19.3771 19.6313 20.2119 19.6313 21.0467 19.6313C21.3687 19.6313 21.3603 19.6313 21.3665 19.2937C21.3692 19.1428 21.3217 19.1094 21.1802 19.1098C19.4148 19.1148 17.649 19.1179 15.8831 19.1071C15.652 19.1057 15.6858 19.2318 15.6853 19.3724C15.6844 19.5134 15.6516 19.6426 15.8827 19.639Z" fill="#8E9000"/>
<path id="Vector_10" d="M15.8849 21.787C16.7627 21.772 17.6414 21.7811 18.5197 21.7806C19.3682 21.7806 20.2172 21.7806 21.0658 21.7806C21.3625 21.7806 21.3541 21.7802 21.3647 21.4693C21.3701 21.3179 21.3395 21.2664 21.1767 21.2668C19.4126 21.2736 17.649 21.2758 15.8849 21.265C15.6583 21.2636 15.684 21.3802 15.684 21.5248C15.684 21.6695 15.6569 21.791 15.8849 21.787Z" fill="#8E9000"/>
<path id="Vector_11" d="M15.8849 20.7476C16.7636 20.734 17.6427 20.7417 18.5219 20.7417C19.3642 20.7417 20.2061 20.7417 21.0484 20.7417C21.3642 20.7417 21.3558 20.7417 21.3651 20.4272C21.3696 20.2762 21.3398 20.2234 21.1762 20.2238C19.4108 20.2306 17.6454 20.2333 15.88 20.222C15.6178 20.2202 15.6977 20.3788 15.6853 20.5121C15.6706 20.6635 15.6853 20.7503 15.8849 20.7476Z" fill="#8E9000"/>
<path id="Vector_12" d="M15.6835 18.3249C15.6906 18.4636 15.648 18.5911 15.8822 18.5865C16.7685 18.5694 17.6552 18.5798 18.5419 18.5798C18.5419 18.5802 18.5419 18.5807 18.5419 18.5807C19.4135 18.5807 20.2855 18.5716 21.1571 18.587C21.3745 18.5906 21.3731 18.4894 21.3629 18.3344C21.3541 18.1997 21.4038 18.0686 21.1664 18.07C19.4081 18.0818 17.6498 18.0808 15.8916 18.07C15.6746 18.0691 15.6755 18.1681 15.6835 18.3249Z" fill="#8E9000"/>
<path id="Vector_13" d="M14.8292 19.4714C14.8904 19.4375 14.8842 19.4068 14.8562 19.3467C14.595 18.7773 13.6333 18.1929 13.0332 18.2399C12.9622 18.2454 12.9254 18.2567 12.9258 18.3384C12.9276 19.0583 12.9267 19.7782 12.9267 20.5311C13.5801 20.1669 14.2042 19.8185 14.8292 19.4714Z" fill="#8E9000"/>
<path id="Vector_14" d="M10.4618 17.4888C11.1924 17.4703 11.9234 17.4825 12.6544 17.4825C13.3854 17.4825 14.1164 17.4694 14.8469 17.4902C15.0785 17.4965 15.0714 17.3899 15.0692 17.2267C15.0674 17.0694 15.0873 16.9542 14.8509 16.9565C13.3894 16.97 11.9274 16.9682 10.4658 16.9569C10.2565 16.9551 10.2573 17.0541 10.2693 17.1996C10.28 17.3311 10.197 17.4956 10.4618 17.4888Z" fill="#8E9000"/>
<path id="Vector_15" d="M14.8576 11.6063C13.4329 11.6207 12.0077 11.613 10.5825 11.6126C10.2676 11.6126 10.28 11.6126 10.2645 11.9298C10.256 12.107 10.3141 12.1377 10.4738 12.1359C11.1973 12.1269 11.9207 12.1318 12.6446 12.1318C13.3832 12.1318 14.1213 12.1242 14.8598 12.1373C15.0497 12.1404 15.0838 12.069 15.0678 11.9059C15.0532 11.7626 15.1277 11.6036 14.8576 11.6063Z" fill="#8E9000"/>
<path id="Vector_16" d="M10.4743 13.1708C11.2053 13.1618 11.9367 13.1667 12.6681 13.1667C13.3996 13.1667 14.131 13.1532 14.8616 13.1735C15.1606 13.1817 15.0395 12.9855 15.0661 12.8504C15.102 12.6678 15.0128 12.6479 14.8598 12.6488C13.4342 12.6543 12.0086 12.652 10.5834 12.652C10.2676 12.652 10.2795 12.6525 10.2649 12.9661C10.256 13.1432 10.3146 13.1726 10.4743 13.1708Z" fill="#8E9000"/>
<path id="Vector_17" d="M10.4734 14.2852C11.2031 14.2762 11.9332 14.2812 12.6633 14.2812C13.3934 14.2807 14.1235 14.2717 14.8532 14.287C15.0594 14.2916 15.0812 14.208 15.0683 14.0398C15.0572 13.8948 15.1078 13.7633 14.858 13.766C13.4275 13.7818 11.997 13.7737 10.5665 13.7732C10.2662 13.7732 10.2787 13.7732 10.264 14.0801C10.256 14.2563 10.3137 14.2875 10.4734 14.2852Z" fill="#8E9000"/>
<path id="Vector_18" d="M14.8758 14.814C13.3996 14.8203 11.9234 14.8235 10.4472 14.8122C10.2165 14.8104 10.2711 14.945 10.2707 15.0684C10.2702 15.1922 10.2174 15.3296 10.4476 15.3246C11.1853 15.3093 11.9234 15.3188 12.661 15.3192C13.3623 15.3197 14.0636 15.3192 14.7644 15.3197C15.0665 15.3197 15.0563 15.3192 15.0696 15.0106C15.0771 14.8479 15.0292 14.8131 14.8758 14.814Z" fill="#8E9000"/>
<path id="Vector_19" d="M20.6639 12.6507C20.2775 13.0217 19.8792 13.3805 19.5013 13.7601C19.3673 13.8943 19.2582 13.9002 19.0959 13.8356C18.7197 13.686 18.3347 13.559 17.9563 13.4153C17.8756 13.3846 17.8295 13.3873 17.7687 13.4555C17.1322 14.1655 16.4917 14.8718 15.8516 15.5782C15.809 15.6252 15.7824 15.6527 15.841 15.7187C15.9532 15.8452 16.0255 15.8827 16.1626 15.7255C16.701 15.1082 17.2559 14.5058 17.8055 13.8984C17.8734 13.8234 17.9271 13.7393 18.0624 13.7931C18.4522 13.9472 18.8497 14.081 19.2405 14.2333C19.3576 14.2789 19.4316 14.2744 19.5297 14.179C19.9817 13.7371 20.4447 13.3064 20.9056 12.8735C20.9451 12.8364 20.9917 12.7447 21.0382 12.7831C21.2183 12.9327 21.1975 12.7447 21.2254 12.6701C21.2773 12.5323 21.3115 12.3881 21.3603 12.2227C21.1611 12.2661 20.9957 12.3013 20.8307 12.3389C20.7863 12.3488 20.6954 12.3511 20.7464 12.4207C20.8453 12.5567 20.7229 12.5942 20.6639 12.6507Z" fill="#8E9000"/>
<path id="Vector_20" d="M18.8497 16.6225C18.8111 16.8268 18.8954 16.8824 19.0888 16.8661C19.3012 16.848 19.5168 16.8552 19.7306 16.8647C19.8561 16.8702 19.8943 16.829 19.8921 16.7007C19.885 16.28 19.8881 15.8588 19.8903 15.4381C19.893 14.9586 19.8943 14.9586 19.4228 14.9586C18.7965 14.9586 18.7965 14.9586 18.8621 15.6007C18.863 15.608 18.867 15.6147 18.8696 15.622C18.8266 15.8963 18.8275 16.1711 18.8674 16.4454C18.8621 16.5046 18.8608 16.5647 18.8497 16.6225ZM18.914 16.298C18.9153 16.2944 18.9158 16.2908 18.9171 16.2872C18.9171 16.2908 18.9171 16.2944 18.9171 16.2985C18.9162 16.298 18.9149 16.298 18.914 16.298ZM18.8834 16.2967C18.879 16.2967 18.8745 16.2962 18.8696 16.2962C18.8696 16.2623 18.8696 16.2284 18.8696 16.1946C18.8736 16.2289 18.8785 16.2628 18.8834 16.2967Z" fill="#8E9000"/>
<path id="Vector_21" d="M17.5239 16.8643C17.7599 16.8571 17.9963 16.8535 18.2318 16.8648C18.3684 16.8715 18.4066 16.8309 18.4039 16.6908C18.395 16.2023 18.4013 15.7137 18.4008 15.2252C18.3999 14.6468 18.3995 14.6468 17.8113 14.6856C17.8073 14.6897 17.8033 14.6929 17.7989 14.6956C17.8029 14.6924 17.8069 14.6888 17.8113 14.6856C17.7519 14.6847 17.6924 14.6843 17.6326 14.6834C17.5283 14.6938 17.37 14.5817 17.3717 14.8203C17.3766 15.4512 17.3766 16.0825 17.3713 16.7134C17.3704 16.8354 17.4112 16.8679 17.5239 16.8643Z" fill="#8E9000"/>
<path id="Vector_22" d="M11.3698 22.8137C11.7353 22.191 12.0981 21.566 12.4694 20.9455C12.524 20.8542 12.4938 20.8257 12.4255 20.7769C11.8764 20.3869 11.3272 19.9965 10.7839 19.5979C10.6907 19.5297 10.661 19.5496 10.6033 19.6354C9.92999 20.6414 10.3066 22.2285 11.3698 22.8137ZM10.6628 19.9617C10.6849 19.9174 10.6991 19.8659 10.755 19.841C10.791 19.8659 10.8273 19.8907 10.8633 19.9165C11.286 20.2179 11.7069 20.5221 12.1319 20.8194C12.2232 20.8831 12.2388 20.9319 12.178 21.0327C11.9034 21.4864 11.6364 21.9447 11.3698 22.4029C11.3197 22.4888 11.286 22.5222 11.1897 22.4445C10.5159 21.899 10.2689 20.7516 10.6628 19.9617Z" fill="#8E9000"/>
<path id="Vector_23" d="M15.0661 16.1087C15.07 15.9523 15.027 15.9049 14.8704 15.9053C13.3987 15.9112 11.9265 15.9085 10.4547 15.9112C10.3975 15.9112 10.3234 15.8701 10.2809 15.951C10.2649 16.1014 10.2591 16.2519 10.2844 16.402C10.3425 16.4747 10.4215 16.4341 10.4889 16.4341C11.6714 16.435 12.8535 16.4322 14.0361 16.4327C14.0379 16.439 14.0396 16.4454 14.0419 16.4526C14.0419 16.4458 14.0419 16.4395 14.0419 16.4327C14.2721 16.4327 14.5027 16.4327 14.7329 16.4332C15.0661 16.4341 15.0576 16.444 15.0661 16.1087Z" fill="#8E9000"/>
<path id="Vector_24" d="M12.5289 18.2092C11.8595 18.2598 11.3197 18.5558 10.8974 19.0832C10.8491 19.1433 10.8238 19.1853 10.9059 19.2436C11.4838 19.6535 12.0591 20.0675 12.673 20.5076C12.673 19.7547 12.6704 19.0556 12.6752 18.3565C12.6761 18.2395 12.6495 18.1997 12.5289 18.2092ZM12.4659 20.1023C12.0179 19.7814 11.6165 19.4922 11.2132 19.2066C11.1445 19.1582 11.1281 19.1266 11.1937 19.0561C11.5051 18.7235 11.8901 18.5346 12.3239 18.4383C12.4038 18.4207 12.4681 18.4257 12.4672 18.5418C12.4641 19.0443 12.4659 19.5473 12.4659 20.1023Z" fill="#8E9000"/>
<path id="Vector_25" d="M16.78 16.0639C16.5817 16.0685 16.3817 16.0834 16.1852 16.0639C15.9634 16.0418 15.884 16.0947 15.8937 16.3459C15.9141 16.8607 15.8968 16.8616 16.4123 16.8625C16.9308 16.8634 16.9308 16.8634 16.9259 16.3242C16.9255 16.2867 16.9201 16.2479 16.9272 16.2117C16.9521 16.0829 16.8838 16.0612 16.78 16.0639Z" fill="#8E9000"/>
</g>
</g>
</svg>
