<svg width="32" height="32" viewBox="0 0 32 32" fill="none" xmlns="http://www.w3.org/2000/svg">
<g id="Group 427319772">
<g id="Group 427319180">
<circle id="Ellipse 969" opacity="0.25" cx="16" cy="16" r="16" fill="#73FF73"/>
</g>
<g id="Group 427319771">
<path id="Vector" d="M11.9603 14.8655C11.9428 14.9259 11.9058 14.9225 11.8633 14.9225C11.5649 14.9229 11.2664 14.924 10.968 14.9225C10.8167 14.9214 10.883 14.7983 10.8771 14.7258C10.8716 14.6552 10.8365 14.55 10.9749 14.5546C11.121 14.5591 11.2671 14.5557 11.4132 14.5557C11.5231 14.5557 11.6326 14.5561 11.7421 14.5557C11.9519 14.555 12.0208 14.6563 11.9603 14.8655Z" fill="#AEB100"/>
<path id="Vector_2" d="M10.8738 14.0371C10.8727 13.9395 10.8588 13.8586 11.0071 13.8613C11.5619 13.8712 12.1167 13.8723 12.6711 13.8609C12.8297 13.8579 12.7952 13.9509 12.7967 14.0397C12.7982 14.1316 12.8245 14.2246 12.6685 14.2155C12.395 14.2 12.12 14.2114 11.8457 14.2114C11.5652 14.2114 11.2843 14.2015 11.0045 14.2151C10.8518 14.2227 10.8749 14.1316 10.8738 14.0371Z" fill="#AEB100"/>
<path id="Vector_3" d="M14.2919 17.5798C14.2952 18.0984 14.2933 18.6171 14.2937 19.1353C14.2937 19.6604 14.2886 20.1855 14.2966 20.7102C14.2992 20.8864 14.2501 20.9627 14.0692 20.9585C13.636 20.9494 13.2028 20.9513 12.77 20.9589C12.6023 20.962 12.5451 20.8951 12.5466 20.7239C12.5525 20.0534 12.5503 19.3833 12.5473 18.7128C12.547 18.625 12.5664 18.5582 12.6268 18.4941C12.989 18.1094 13.3522 17.726 13.7045 17.3319C13.8722 17.1443 14.0249 17.281 14.1868 17.3201C14.3399 17.3573 14.2911 17.4826 14.2919 17.5798Z" fill="#AEB100"/>
<path id="Vector_4" d="M16.9999 20.7426C17.0006 20.8937 16.9453 20.9594 16.7948 20.9575C16.3495 20.9522 15.9046 20.9525 15.4597 20.9586C15.2996 20.9605 15.2458 20.8914 15.2491 20.7304C15.2564 20.3576 15.2513 19.9847 15.2513 19.6115C15.2517 19.6115 15.2517 19.6115 15.252 19.6115C15.252 19.2387 15.2564 18.8658 15.2498 18.493C15.2473 18.3377 15.3051 18.2766 15.4538 18.2781C15.8987 18.283 16.344 18.2838 16.789 18.2785C16.9343 18.277 17.0002 18.3282 16.9995 18.4862C16.9959 19.2383 16.9966 19.9904 16.9999 20.7426Z" fill="#AEB100"/>
<path id="Vector_5" d="M13.6375 16.5453C13.2288 16.9967 12.8135 17.4421 12.3997 17.8886C12.2686 18.0302 12.117 18.0469 12.0222 17.9326C11.9303 17.8221 11.9438 17.7105 12.0357 17.611C12.5385 17.0685 13.0428 16.5278 13.547 15.9871C13.636 15.8918 13.7327 15.9036 13.8466 15.9473C14.5786 16.2279 15.3143 16.4967 16.0448 16.781C16.2093 16.8452 16.3078 16.8437 16.4389 16.6911C17.0585 15.9685 17.6946 15.2612 18.3292 14.5527C18.4244 14.4464 18.4599 14.3804 18.316 14.2839C18.1842 14.1958 18.0725 14.0751 17.9513 13.9688C17.9135 13.9358 17.8722 13.9027 17.8963 13.8431C17.9161 13.7945 17.9604 13.7941 18.004 13.7896C18.3797 13.752 18.7551 13.7121 19.1916 13.6669C19.297 13.6332 19.3622 13.7049 19.3721 13.8777C19.3952 14.268 19.4307 14.6579 19.46 15.0478C19.4636 15.0972 19.4735 15.1534 19.4164 15.18C19.3604 15.2062 19.3249 15.1602 19.289 15.1298C19.1615 15.022 19.0297 14.9184 18.9114 14.8007C18.8217 14.7114 18.7723 14.7297 18.6939 14.8189C18.0135 15.5953 17.328 16.3664 16.645 17.1402C16.4055 17.4113 16.407 17.4113 16.0694 17.2826C15.3601 17.0123 14.6482 16.748 13.9422 16.4682C13.8048 16.4139 13.7301 16.4428 13.6375 16.5453Z" fill="#AEB100"/>
<path id="Vector_6" d="M19.5355 15.9613C19.5391 16.2965 19.538 16.6318 19.538 16.9671C19.538 17.4348 19.538 17.903 19.5377 18.3707C19.5377 19.1551 19.5333 19.9392 19.5413 20.7232C19.5431 20.8997 19.4864 20.9571 19.3209 20.954C18.8877 20.9461 18.4544 20.9476 18.0216 20.9533C17.8693 20.9552 17.8063 20.9096 17.807 20.7361C17.8136 19.4334 17.8118 18.1304 17.8081 16.8277C17.8081 16.7176 17.8411 16.6386 17.9125 16.56C18.1798 16.2658 18.4453 15.9693 18.7027 15.6655C18.7844 15.5691 18.839 15.5767 18.9202 15.6579C19.0766 15.8151 19.2414 15.9499 19.4864 15.8675C19.5746 15.8379 19.5351 15.9283 19.5355 15.9613Z" fill="#AEB100"/>
<path id="Vector_7" d="M23 12.1622C23.0007 11.9899 22.955 11.9534 22.7975 11.9572C22.3097 11.9686 21.8216 11.9572 21.3338 11.9667C21.1892 11.9694 21.1189 11.936 21.0639 11.7803C20.8603 11.2028 20.1235 11.0866 19.7427 11.5601C19.702 11.6106 19.6614 11.6611 19.6109 11.7233C19.3424 11.2582 19.0755 10.8163 18.8294 10.3618C18.6848 10.0949 18.4801 9.92672 18.2157 9.7999C17.7638 9.58273 17.2599 9.45326 16.923 9.02802C16.8538 8.94108 16.8113 9.00828 16.7626 9.05384C16.5378 9.26684 16.3089 9.47604 16.0884 9.69397C16.0152 9.76649 15.9713 9.76763 15.8987 9.6936C15.686 9.47642 15.4611 9.27178 15.2502 9.0527C15.1708 8.96993 15.1257 8.97829 15.0462 9.0508C14.8599 9.21976 14.6822 9.40162 14.442 9.49844C14.2055 9.59374 13.9744 9.70347 13.7433 9.81281C13.5115 9.92254 13.3273 10.0812 13.197 10.3197C12.9406 10.7893 12.6649 11.2476 12.3968 11.7108C12.3763 11.6983 12.365 11.6949 12.358 11.6869C12.3342 11.658 12.3108 11.6292 12.2892 11.5988C12.0848 11.3137 11.8032 11.2244 11.4821 11.2894C11.192 11.3478 10.9969 11.546 10.9101 11.8361C10.8767 11.947 10.828 11.9652 10.7336 11.9648C10.2271 11.961 9.72067 11.9679 9.21459 11.9576C9.05566 11.9542 9.00037 11.9865 9.00073 12.1695C9.00623 15.7301 9.00586 19.2907 9 22.8513C9 23.0244 9.04797 23.0559 9.20397 23.0551C10.5823 23.0483 11.9611 23.0529 13.3398 23.0475C13.4694 23.0472 13.5079 23.0684 13.506 23.2176C13.4961 24.0461 13.495 24.8745 13.5038 25.703C13.5112 26.4274 14.0154 26.9783 14.6705 26.9996C15.3696 27.0224 15.9335 26.4665 15.9398 25.733C15.9471 24.8856 15.9412 24.0381 15.9431 23.1907C15.9431 23.1318 15.9042 23.0491 16.0247 23.0479C16.1448 23.0464 16.1064 23.125 16.1064 23.1858C16.1067 24.0081 16.1056 24.8301 16.1064 25.6525C16.1064 25.8613 16.1287 26.0664 16.2144 26.26C16.4572 26.8082 17.0123 27.0907 17.6023 26.9647C18.145 26.8485 18.5332 26.326 18.5375 25.6859C18.5434 24.8635 18.5445 24.0415 18.5343 23.2195C18.5324 23.0726 18.565 23.0487 18.6965 23.0491C20.069 23.0548 21.4415 23.0506 22.814 23.0567C22.9506 23.0574 22.9843 23.0236 22.9835 22.8816C22.9784 21.7684 22.9821 20.6556 22.9835 19.5424C22.9875 17.0825 22.9897 14.6222 23 12.1622ZM15.7625 11.5369C15.8248 11.0714 15.8889 10.606 15.9548 10.1409C15.9606 10.1002 15.9841 10.0623 16.0038 10.0125C16.0932 10.6154 16.1778 11.2039 16.2693 11.7917C16.2891 11.9185 16.2719 11.9827 16.1302 11.9648C15.9929 11.9477 15.812 12.0252 15.7281 11.9314C15.6523 11.8464 15.7446 11.6717 15.7625 11.5369ZM21.6832 21.918C17.8887 21.9131 14.0941 21.9131 10.2996 21.918C10.1488 21.918 10.1096 21.8831 10.1099 21.724C10.1151 18.903 10.1151 16.082 10.1092 13.2614C10.1088 13.0985 10.1737 13.0974 10.2905 13.0978C12.2002 13.1004 14.1095 13.0997 16.0192 13.0993C17.9165 13.0993 19.8137 13.1008 21.711 13.0959C21.852 13.0955 21.8912 13.1297 21.8912 13.2804C21.8864 16.0889 21.886 18.8969 21.8915 21.705C21.8919 21.8789 21.8472 21.9184 21.6832 21.918Z" fill="#AEB100"/>
<path id="Vector_8" d="M18.4002 6.49298C18.3948 7.86968 17.3189 8.97492 15.9943 8.96391C14.6812 8.95328 13.6126 7.83589 13.6155 6.47665C13.6188 5.08856 14.6977 3.99357 16.0559 4.00003C17.35 4.0061 18.4057 5.1288 18.4002 6.49298Z" fill="#AEB100"/>
<path id="Vector_9" d="M11.9603 14.8655C11.9428 14.9259 11.9058 14.9225 11.8633 14.9225C11.5649 14.9229 11.2664 14.924 10.968 14.9225C10.8167 14.9214 10.883 14.7983 10.8771 14.7258C10.8716 14.6552 10.8365 14.55 10.9749 14.5546C11.121 14.5591 11.2671 14.5557 11.4132 14.5557C11.5231 14.5557 11.6326 14.5561 11.7421 14.5557C11.9519 14.555 12.0208 14.6563 11.9603 14.8655Z" fill="#AEB100"/>
<path id="Vector_10" d="M10.8738 14.0371C10.8727 13.9395 10.8588 13.8586 11.0071 13.8613C11.5619 13.8712 12.1167 13.8723 12.6711 13.8609C12.8297 13.8579 12.7952 13.9509 12.7967 14.0397C12.7982 14.1316 12.8245 14.2246 12.6685 14.2155C12.395 14.2 12.12 14.2114 11.8457 14.2114C11.5652 14.2114 11.2843 14.2015 11.0045 14.2151C10.8518 14.2227 10.8749 14.1316 10.8738 14.0371Z" fill="#AEB100"/>
<path id="Vector_11" d="M14.2919 17.5798C14.2952 18.0984 14.2933 18.6171 14.2937 19.1353C14.2937 19.6604 14.2886 20.1855 14.2966 20.7102C14.2992 20.8864 14.2501 20.9627 14.0692 20.9585C13.636 20.9494 13.2028 20.9513 12.77 20.9589C12.6023 20.962 12.5451 20.8951 12.5466 20.7239C12.5525 20.0534 12.5503 19.3833 12.5473 18.7128C12.547 18.625 12.5664 18.5582 12.6268 18.4941C12.989 18.1094 13.3522 17.726 13.7045 17.3319C13.8722 17.1443 14.0249 17.281 14.1868 17.3201C14.3399 17.3573 14.2911 17.4826 14.2919 17.5798Z" fill="#AEB100"/>
<path id="Vector_12" d="M16.9999 20.7426C17.0006 20.8937 16.9453 20.9594 16.7948 20.9575C16.3495 20.9522 15.9046 20.9525 15.4597 20.9586C15.2996 20.9605 15.2458 20.8914 15.2491 20.7304C15.2564 20.3576 15.2513 19.9847 15.2513 19.6115C15.2517 19.6115 15.2517 19.6115 15.252 19.6115C15.252 19.2387 15.2564 18.8658 15.2498 18.493C15.2473 18.3377 15.3051 18.2766 15.4538 18.2781C15.8987 18.283 16.344 18.2838 16.789 18.2785C16.9343 18.277 17.0002 18.3282 16.9995 18.4862C16.9959 19.2383 16.9966 19.9904 16.9999 20.7426Z" fill="#AEB100"/>
<path id="Vector_13" d="M13.6375 16.5453C13.2288 16.9967 12.8135 17.4421 12.3997 17.8886C12.2686 18.0302 12.117 18.0469 12.0222 17.9326C11.9303 17.8221 11.9438 17.7105 12.0357 17.611C12.5385 17.0685 13.0428 16.5278 13.547 15.9871C13.636 15.8918 13.7327 15.9036 13.8466 15.9473C14.5786 16.2279 15.3143 16.4967 16.0448 16.781C16.2093 16.8452 16.3078 16.8437 16.4389 16.6911C17.0585 15.9685 17.6946 15.2612 18.3292 14.5527C18.4244 14.4464 18.4599 14.3804 18.316 14.2839C18.1842 14.1958 18.0725 14.0751 17.9513 13.9688C17.9135 13.9358 17.8722 13.9027 17.8963 13.8431C17.9161 13.7945 17.9604 13.7941 18.004 13.7896C18.3797 13.752 18.7551 13.7121 19.1916 13.6669C19.297 13.6332 19.3622 13.7049 19.3721 13.8777C19.3952 14.268 19.4307 14.6579 19.46 15.0478C19.4636 15.0972 19.4735 15.1534 19.4164 15.18C19.3604 15.2062 19.3249 15.1602 19.289 15.1298C19.1615 15.022 19.0297 14.9184 18.9114 14.8007C18.8217 14.7114 18.7723 14.7297 18.6939 14.8189C18.0135 15.5953 17.328 16.3664 16.645 17.1402C16.4055 17.4113 16.407 17.4113 16.0694 17.2826C15.3601 17.0123 14.6482 16.748 13.9422 16.4682C13.8048 16.4139 13.7301 16.4428 13.6375 16.5453Z" fill="#AEB100"/>
<path id="Vector_14" d="M19.5413 20.7232C19.5431 20.8997 19.4864 20.9571 19.3209 20.954C18.8877 20.9461 18.4544 20.9476 18.0216 20.9533C17.8693 20.9552 17.8063 20.9096 17.807 20.7361C17.8136 19.4334 17.8118 18.1304 17.8081 16.8277C17.8081 16.7176 17.8411 16.6386 17.9125 16.56C18.1798 16.2658 18.4453 15.9693 18.7027 15.6655C18.7844 15.5691 18.839 15.5767 18.9202 15.6579C19.0766 15.8151 19.2414 15.9499 19.4864 15.8675C19.5746 15.8379 19.5351 15.9283 19.5355 15.9613C19.5391 16.2965 19.538 16.6318 19.538 16.9671C19.538 17.4348 19.538 17.903 19.5377 18.3707C19.5377 19.1551 19.5333 19.9392 19.5413 20.7232Z" fill="#AEB100"/>
<path id="Vector_15" d="M19.5413 20.7232C19.5431 20.8997 19.4864 20.9571 19.3209 20.954C18.8877 20.9461 18.4544 20.9476 18.0216 20.9533C17.8693 20.9552 17.8063 20.9096 17.807 20.7361C17.8136 19.4334 17.8118 18.1304 17.8081 16.8277C17.8081 16.7176 17.8411 16.6386 17.9125 16.56C18.1798 16.2658 18.4453 15.9693 18.7027 15.6655C18.7844 15.5691 18.839 15.5767 18.9202 15.6579C19.0766 15.8151 19.2414 15.9499 19.4864 15.8675C19.5746 15.8379 19.5351 15.9283 19.5355 15.9613C19.5391 16.2965 19.538 16.6318 19.538 16.9671C19.538 17.4348 19.538 17.903 19.5377 18.3707C19.5377 19.1551 19.5333 19.9392 19.5413 20.7232Z" fill="#AEB100"/>
<path id="Vector_16" d="M14.2966 20.7102C14.2992 20.8864 14.2501 20.9627 14.0692 20.9585C13.636 20.9494 13.2028 20.9513 12.77 20.9589C12.6023 20.962 12.5451 20.8951 12.5466 20.7239C12.5525 20.0534 12.5503 19.3833 12.5473 18.7128C12.547 18.625 12.5664 18.5582 12.6268 18.4941C12.989 18.1094 13.3522 17.726 13.7045 17.3319C13.8722 17.1443 14.0249 17.281 14.1868 17.3201C14.3399 17.3573 14.2911 17.4826 14.2919 17.5798C14.2952 18.0984 14.2933 18.6171 14.2937 19.1353C14.2937 19.6604 14.2886 20.1855 14.2966 20.7102Z" fill="#AEB100"/>
<path id="Vector_17" d="M19.4164 15.18C19.3604 15.2062 19.3249 15.1602 19.289 15.1298C19.1615 15.022 19.0297 14.9184 18.9114 14.8007C18.8217 14.7114 18.7723 14.7297 18.6939 14.8189C18.0135 15.5953 17.328 16.3664 16.645 17.1402C16.4055 17.4113 16.407 17.4113 16.0694 17.2826C15.3601 17.0123 14.6482 16.748 13.9422 16.4682C13.8048 16.4139 13.7301 16.4428 13.6375 16.5453C13.2288 16.9967 12.8135 17.4421 12.3997 17.8886C12.2686 18.0302 12.117 18.0469 12.0222 17.9326C11.9303 17.8221 11.9438 17.7105 12.0357 17.611C12.5385 17.0685 13.0428 16.5278 13.547 15.9871C13.636 15.8918 13.7327 15.9036 13.8466 15.9473C14.5786 16.2279 15.3143 16.4967 16.0448 16.781C16.2093 16.8452 16.3078 16.8437 16.4389 16.6911C17.0585 15.9685 17.6946 15.2612 18.3292 14.5527C18.4244 14.4464 18.4599 14.3804 18.316 14.2839C18.1842 14.1958 18.0725 14.0751 17.9513 13.9688C17.9135 13.9358 17.8722 13.9027 17.8963 13.8431C17.9161 13.7945 17.9604 13.7941 18.004 13.7896C18.3797 13.752 18.7551 13.7121 19.1916 13.6669C19.297 13.6332 19.3622 13.7049 19.3721 13.8777C19.3952 14.268 19.4307 14.6579 19.46 15.0478C19.4636 15.0972 19.4735 15.1534 19.4164 15.18Z" fill="#AEB100"/>
<path id="Vector_18" d="M16.9999 20.7426C17.0006 20.8937 16.9453 20.9594 16.7948 20.9575C16.3495 20.9522 15.9046 20.9525 15.4597 20.9586C15.2996 20.9605 15.2458 20.8914 15.2491 20.7304C15.2564 20.3576 15.2513 19.9847 15.2513 19.6115C15.2517 19.6115 15.2517 19.6115 15.252 19.6115C15.252 19.2387 15.2564 18.8658 15.2498 18.493C15.2473 18.3377 15.3051 18.2766 15.4538 18.2781C15.8987 18.283 16.344 18.2838 16.789 18.2785C16.9343 18.277 17.0002 18.3282 16.9995 18.4862C16.9959 19.2383 16.9966 19.9904 16.9999 20.7426Z" fill="#AEB100"/>
<path id="Vector_19" d="M12.6685 14.2155C12.395 14.2 12.12 14.2114 11.8457 14.2114C11.5652 14.2114 11.2843 14.2015 11.0045 14.2151C10.8518 14.2227 10.8749 14.1316 10.8738 14.0371C10.8727 13.9395 10.8588 13.8586 11.0071 13.8613C11.5619 13.8712 12.1167 13.8723 12.6711 13.8609C12.8297 13.8579 12.7952 13.9509 12.7967 14.0397C12.7982 14.1316 12.8245 14.2246 12.6685 14.2155Z" fill="#AEB100"/>
<path id="Vector_20" d="M11.9603 14.8655C11.9428 14.9259 11.9058 14.9225 11.8633 14.9225C11.5649 14.9229 11.2664 14.924 10.968 14.9225C10.8167 14.9214 10.883 14.7983 10.8771 14.7258C10.8716 14.6552 10.8365 14.55 10.9749 14.5546C11.121 14.5591 11.2671 14.5557 11.4132 14.5557C11.5231 14.5557 11.6326 14.5561 11.7421 14.5557C11.9519 14.555 12.0208 14.6563 11.9603 14.8655Z" fill="#AEB100"/>
<path id="Vector_21" d="M11.9603 14.8655C11.9428 14.9259 11.9058 14.9225 11.8633 14.9225C11.5649 14.9229 11.2664 14.924 10.968 14.9225C10.8167 14.9214 10.883 14.7983 10.8771 14.7258C10.8716 14.6552 10.8365 14.55 10.9749 14.5546C11.121 14.5591 11.2671 14.5557 11.4132 14.5557C11.5231 14.5557 11.6326 14.5561 11.7421 14.5557C11.9519 14.555 12.0208 14.6563 11.9603 14.8655Z" fill="#AEB100"/>
<path id="Vector_22" d="M10.8738 14.0371C10.8727 13.9395 10.8588 13.8586 11.0071 13.8613C11.5619 13.8712 12.1167 13.8723 12.6711 13.8609C12.8297 13.8579 12.7952 13.9509 12.7967 14.0397C12.7982 14.1316 12.8245 14.2246 12.6685 14.2155C12.395 14.2 12.12 14.2114 11.8457 14.2114C11.5652 14.2114 11.2843 14.2015 11.0045 14.2151C10.8518 14.2227 10.8749 14.1316 10.8738 14.0371Z" fill="#AEB100"/>
<path id="Vector_23" d="M14.2919 17.5798C14.2952 18.0984 14.2933 18.6171 14.2937 19.1353C14.2937 19.6604 14.2886 20.1855 14.2966 20.7102C14.2992 20.8864 14.2501 20.9627 14.0692 20.9585C13.636 20.9494 13.2028 20.9513 12.77 20.9589C12.6023 20.962 12.5451 20.8951 12.5466 20.7239C12.5525 20.0534 12.5503 19.3833 12.5473 18.7128C12.547 18.625 12.5664 18.5582 12.6268 18.4941C12.989 18.1094 13.3522 17.726 13.7045 17.3319C13.8722 17.1443 14.0249 17.281 14.1868 17.3201C14.3399 17.3573 14.2911 17.4826 14.2919 17.5798Z" fill="#AEB100"/>
<path id="Vector_24" d="M16.9999 20.7426C17.0006 20.8937 16.9453 20.9594 16.7948 20.9575C16.3495 20.9522 15.9046 20.9525 15.4597 20.9586C15.2996 20.9605 15.2458 20.8914 15.2491 20.7304C15.2564 20.3576 15.2513 19.9847 15.2513 19.6115C15.2517 19.6115 15.2517 19.6115 15.252 19.6115C15.252 19.2387 15.2564 18.8658 15.2498 18.493C15.2473 18.3377 15.3051 18.2766 15.4538 18.2781C15.8987 18.283 16.344 18.2838 16.789 18.2785C16.9343 18.277 17.0002 18.3282 16.9995 18.4862C16.9959 19.2383 16.9966 19.9904 16.9999 20.7426Z" fill="#AEB100"/>
<path id="Vector_25" d="M13.6375 16.5453C13.2288 16.9967 12.8135 17.4421 12.3997 17.8886C12.2686 18.0302 12.117 18.0469 12.0222 17.9326C11.9303 17.8221 11.9438 17.7105 12.0357 17.611C12.5385 17.0685 13.0428 16.5278 13.547 15.9871C13.636 15.8918 13.7327 15.9036 13.8466 15.9473C14.5786 16.2279 15.3143 16.4967 16.0448 16.781C16.2093 16.8452 16.3078 16.8437 16.4389 16.6911C17.0585 15.9685 17.6946 15.2612 18.3292 14.5527C18.4244 14.4464 18.4599 14.3804 18.316 14.2839C18.1842 14.1958 18.0725 14.0751 17.9513 13.9688C17.9135 13.9358 17.8722 13.9027 17.8963 13.8431C17.9161 13.7945 17.9604 13.7941 18.004 13.7896C18.3797 13.752 18.7551 13.7121 19.1916 13.6669C19.297 13.6332 19.3622 13.7049 19.3721 13.8777C19.3952 14.268 19.4307 14.6579 19.46 15.0478C19.4636 15.0972 19.4735 15.1534 19.4164 15.18C19.3604 15.2062 19.3249 15.1602 19.289 15.1298C19.1615 15.022 19.0297 14.9184 18.9114 14.8007C18.8217 14.7114 18.7723 14.7297 18.6939 14.8189C18.0135 15.5953 17.328 16.3664 16.645 17.1402C16.4055 17.4113 16.407 17.4113 16.0694 17.2826C15.3601 17.0123 14.6482 16.748 13.9422 16.4682C13.8048 16.4139 13.7301 16.4428 13.6375 16.5453Z" fill="#AEB100"/>
<path id="Vector_26" d="M19.5355 15.9613C19.5391 16.2965 19.538 16.6318 19.538 16.9671C19.538 17.4348 19.538 17.903 19.5377 18.3707C19.5377 19.1551 19.5333 19.9392 19.5413 20.7232C19.5431 20.8997 19.4864 20.9571 19.3209 20.954C18.8877 20.9461 18.4544 20.9476 18.0216 20.9533C17.8693 20.9552 17.8063 20.9096 17.807 20.7361C17.8136 19.4334 17.8118 18.1304 17.8081 16.8277C17.8081 16.7176 17.8411 16.6386 17.9125 16.56C18.1798 16.2658 18.4453 15.9693 18.7027 15.6655C18.7844 15.5691 18.839 15.5767 18.9202 15.6579C19.0766 15.8151 19.2414 15.9499 19.4864 15.8675C19.5746 15.8379 19.5351 15.9283 19.5355 15.9613Z" fill="#AEB100"/>
<path id="Vector_27" d="M23 12.1622C23.0007 11.9899 22.955 11.9534 22.7975 11.9572C22.3097 11.9686 21.8216 11.9572 21.3338 11.9667C21.1892 11.9694 21.1189 11.936 21.0639 11.7803C20.8603 11.2028 20.1235 11.0866 19.7427 11.5601C19.702 11.6106 19.6614 11.6611 19.6109 11.7233C19.3424 11.2582 19.0755 10.8163 18.8294 10.3618C18.6848 10.0949 18.4801 9.92672 18.2157 9.7999C17.7638 9.58273 17.2599 9.45326 16.923 9.02802C16.8538 8.94108 16.8113 9.00828 16.7626 9.05384C16.5378 9.26684 16.3089 9.47604 16.0884 9.69397C16.0152 9.76649 15.9713 9.76763 15.8987 9.6936C15.686 9.47642 15.4611 9.27178 15.2502 9.0527C15.1708 8.96993 15.1257 8.97829 15.0462 9.0508C14.8599 9.21976 14.6822 9.40162 14.442 9.49844C14.2055 9.59374 13.9744 9.70347 13.7433 9.81281C13.5115 9.92254 13.3273 10.0812 13.197 10.3197C12.9406 10.7893 12.6649 11.2476 12.3968 11.7108C12.3763 11.6983 12.365 11.6949 12.358 11.6869C12.3342 11.658 12.3108 11.6292 12.2892 11.5988C12.0848 11.3137 11.8032 11.2244 11.4821 11.2894C11.192 11.3478 10.9969 11.546 10.9101 11.8361C10.8767 11.947 10.828 11.9652 10.7336 11.9648C10.2271 11.961 9.72067 11.9679 9.21459 11.9576C9.05566 11.9542 9.00037 11.9865 9.00073 12.1695C9.00623 15.7301 9.00586 19.2907 9 22.8513C9 23.0244 9.04797 23.0559 9.20397 23.0551C10.5823 23.0483 11.9611 23.0529 13.3398 23.0475C13.4694 23.0472 13.5079 23.0684 13.506 23.2176C13.4961 24.0461 13.495 24.8745 13.5038 25.703C13.5112 26.4274 14.0154 26.9783 14.6705 26.9996C15.3696 27.0224 15.9335 26.4665 15.9398 25.733C15.9471 24.8856 15.9412 24.0381 15.9431 23.1907C15.9431 23.1318 15.9042 23.0491 16.0247 23.0479C16.1448 23.0464 16.1064 23.125 16.1064 23.1858C16.1067 24.0081 16.1056 24.8301 16.1064 25.6525C16.1064 25.8613 16.1287 26.0664 16.2144 26.26C16.4572 26.8082 17.0123 27.0907 17.6023 26.9647C18.145 26.8485 18.5332 26.326 18.5375 25.6859C18.5434 24.8635 18.5445 24.0415 18.5343 23.2195C18.5324 23.0726 18.565 23.0487 18.6965 23.0491C20.069 23.0548 21.4415 23.0506 22.814 23.0567C22.9506 23.0574 22.9843 23.0236 22.9835 22.8816C22.9784 21.7684 22.9821 20.6556 22.9835 19.5424C22.9875 17.0825 22.9897 14.6222 23 12.1622ZM15.7625 11.5369C15.8248 11.0714 15.8889 10.606 15.9548 10.1409C15.9606 10.1002 15.9841 10.0623 16.0038 10.0125C16.0932 10.6154 16.1778 11.2039 16.2693 11.7917C16.2891 11.9185 16.2719 11.9827 16.1302 11.9648C15.9929 11.9477 15.812 12.0252 15.7281 11.9314C15.6523 11.8464 15.7446 11.6717 15.7625 11.5369ZM21.6832 21.918C17.8887 21.9131 14.0941 21.9131 10.2996 21.918C10.1488 21.918 10.1096 21.8831 10.1099 21.724C10.1151 18.903 10.1151 16.082 10.1092 13.2614C10.1088 13.0985 10.1737 13.0974 10.2905 13.0978C12.2002 13.1004 14.1095 13.0997 16.0192 13.0993C17.9165 13.0993 19.8137 13.1008 21.711 13.0959C21.852 13.0955 21.8912 13.1297 21.8912 13.2804C21.8864 16.0889 21.886 18.8969 21.8915 21.705C21.8919 21.8789 21.8472 21.9184 21.6832 21.918Z" fill="#AEB100"/>
<path id="Vector_28" d="M18.4002 6.49298C18.3948 7.86968 17.3189 8.97492 15.9943 8.96391C14.6812 8.95328 13.6126 7.83589 13.6155 6.47665C13.6188 5.08856 14.6977 3.99357 16.0559 4.00003C17.35 4.0061 18.4057 5.1288 18.4002 6.49298Z" fill="#AEB100"/>
<path id="Vector_29" d="M11.9603 14.8655C11.9428 14.9259 11.9058 14.9225 11.8633 14.9225C11.5649 14.9229 11.2664 14.924 10.968 14.9225C10.8167 14.9214 10.883 14.7983 10.8771 14.7258C10.8716 14.6552 10.8365 14.55 10.9749 14.5546C11.121 14.5591 11.2671 14.5557 11.4132 14.5557C11.5231 14.5557 11.6326 14.5561 11.7421 14.5557C11.9519 14.555 12.0208 14.6563 11.9603 14.8655Z" fill="#AEB100"/>
<path id="Vector_30" d="M10.8738 14.0371C10.8727 13.9395 10.8588 13.8586 11.0071 13.8613C11.5619 13.8712 12.1167 13.8723 12.6711 13.8609C12.8297 13.8579 12.7952 13.9509 12.7967 14.0397C12.7982 14.1316 12.8245 14.2246 12.6685 14.2155C12.395 14.2 12.12 14.2114 11.8457 14.2114C11.5652 14.2114 11.2843 14.2015 11.0045 14.2151C10.8518 14.2227 10.8749 14.1316 10.8738 14.0371Z" fill="#AEB100"/>
<path id="Vector_31" d="M14.2919 17.5798C14.2952 18.0984 14.2933 18.6171 14.2937 19.1353C14.2937 19.6604 14.2886 20.1855 14.2966 20.7102C14.2992 20.8864 14.2501 20.9627 14.0692 20.9585C13.636 20.9494 13.2028 20.9513 12.77 20.9589C12.6023 20.962 12.5451 20.8951 12.5466 20.7239C12.5525 20.0534 12.5503 19.3833 12.5473 18.7128C12.547 18.625 12.5664 18.5582 12.6268 18.4941C12.989 18.1094 13.3522 17.726 13.7045 17.3319C13.8722 17.1443 14.0249 17.281 14.1868 17.3201C14.3399 17.3573 14.2911 17.4826 14.2919 17.5798Z" fill="#AEB100"/>
<path id="Vector_32" d="M16.9999 20.7426C17.0006 20.8937 16.9453 20.9594 16.7948 20.9575C16.3495 20.9522 15.9046 20.9525 15.4597 20.9586C15.2996 20.9605 15.2458 20.8914 15.2491 20.7304C15.2564 20.3576 15.2513 19.9847 15.2513 19.6115C15.2517 19.6115 15.2517 19.6115 15.252 19.6115C15.252 19.2387 15.2564 18.8658 15.2498 18.493C15.2473 18.3377 15.3051 18.2766 15.4538 18.2781C15.8987 18.283 16.344 18.2838 16.789 18.2785C16.9343 18.277 17.0002 18.3282 16.9995 18.4862C16.9959 19.2383 16.9966 19.9904 16.9999 20.7426Z" fill="#AEB100"/>
<path id="Vector_33" d="M13.6375 16.5453C13.2288 16.9967 12.8135 17.4421 12.3997 17.8886C12.2686 18.0302 12.117 18.0469 12.0222 17.9326C11.9303 17.8221 11.9438 17.7105 12.0357 17.611C12.5385 17.0685 13.0428 16.5278 13.547 15.9871C13.636 15.8918 13.7327 15.9036 13.8466 15.9473C14.5786 16.2279 15.3143 16.4967 16.0448 16.781C16.2093 16.8452 16.3078 16.8437 16.4389 16.6911C17.0585 15.9685 17.6946 15.2612 18.3292 14.5527C18.4244 14.4464 18.4599 14.3804 18.316 14.2839C18.1842 14.1958 18.0725 14.0751 17.9513 13.9688C17.9135 13.9358 17.8722 13.9027 17.8963 13.8431C17.9161 13.7945 17.9604 13.7941 18.004 13.7896C18.3797 13.752 18.7551 13.7121 19.1916 13.6669C19.297 13.6332 19.3622 13.7049 19.3721 13.8777C19.3952 14.268 19.4307 14.6579 19.46 15.0478C19.4636 15.0972 19.4735 15.1534 19.4164 15.18C19.3604 15.2062 19.3249 15.1602 19.289 15.1298C19.1615 15.022 19.0297 14.9184 18.9114 14.8007C18.8217 14.7114 18.7723 14.7297 18.6939 14.8189C18.0135 15.5953 17.328 16.3664 16.645 17.1402C16.4055 17.4113 16.407 17.4113 16.0694 17.2826C15.3601 17.0123 14.6482 16.748 13.9422 16.4682C13.8048 16.4139 13.7301 16.4428 13.6375 16.5453Z" fill="#AEB100"/>
<path id="Vector_34" d="M19.5413 20.7232C19.5431 20.8997 19.4864 20.9571 19.3209 20.954C18.8877 20.9461 18.4544 20.9476 18.0216 20.9533C17.8693 20.9552 17.8063 20.9096 17.807 20.7361C17.8136 19.4334 17.8118 18.1304 17.8081 16.8277C17.8081 16.7176 17.8411 16.6386 17.9125 16.56C18.1798 16.2658 18.4453 15.9693 18.7027 15.6655C18.7844 15.5691 18.839 15.5767 18.9202 15.6579C19.0766 15.8151 19.2414 15.9499 19.4864 15.8675C19.5746 15.8379 19.5351 15.9283 19.5355 15.9613C19.5391 16.2965 19.538 16.6318 19.538 16.9671C19.538 17.4348 19.538 17.903 19.5377 18.3707C19.5377 19.1551 19.5333 19.9392 19.5413 20.7232Z" fill="#AEB100"/>
<path id="Vector_35" d="M19.5413 20.7232C19.5431 20.8997 19.4864 20.9571 19.3209 20.954C18.8877 20.9461 18.4544 20.9476 18.0216 20.9533C17.8693 20.9552 17.8063 20.9096 17.807 20.7361C17.8136 19.4334 17.8118 18.1304 17.8081 16.8277C17.8081 16.7176 17.8411 16.6386 17.9125 16.56C18.1798 16.2658 18.4453 15.9693 18.7027 15.6655C18.7844 15.5691 18.839 15.5767 18.9202 15.6579C19.0766 15.8151 19.2414 15.9499 19.4864 15.8675C19.5746 15.8379 19.5351 15.9283 19.5355 15.9613C19.5391 16.2965 19.538 16.6318 19.538 16.9671C19.538 17.4348 19.538 17.903 19.5377 18.3707C19.5377 19.1551 19.5333 19.9392 19.5413 20.7232Z" fill="#AEB100"/>
<path id="Vector_36" d="M14.2966 20.7102C14.2992 20.8864 14.2501 20.9627 14.0692 20.9585C13.636 20.9494 13.2028 20.9513 12.77 20.9589C12.6023 20.962 12.5451 20.8951 12.5466 20.7239C12.5525 20.0534 12.5503 19.3833 12.5473 18.7128C12.547 18.625 12.5664 18.5582 12.6268 18.4941C12.989 18.1094 13.3522 17.726 13.7045 17.3319C13.8722 17.1443 14.0249 17.281 14.1868 17.3201C14.3399 17.3573 14.2911 17.4826 14.2919 17.5798C14.2952 18.0984 14.2933 18.6171 14.2937 19.1353C14.2937 19.6604 14.2886 20.1855 14.2966 20.7102Z" fill="#AEB100"/>
<path id="Vector_37" d="M19.4164 15.18C19.3604 15.2062 19.3249 15.1602 19.289 15.1298C19.1615 15.022 19.0297 14.9184 18.9114 14.8007C18.8217 14.7114 18.7723 14.7297 18.6939 14.8189C18.0135 15.5953 17.328 16.3664 16.645 17.1402C16.4055 17.4113 16.407 17.4113 16.0694 17.2826C15.3601 17.0123 14.6482 16.748 13.9422 16.4682C13.8048 16.4139 13.7301 16.4428 13.6375 16.5453C13.2288 16.9967 12.8135 17.4421 12.3997 17.8886C12.2686 18.0302 12.117 18.0469 12.0222 17.9326C11.9303 17.8221 11.9438 17.7105 12.0357 17.611C12.5385 17.0685 13.0428 16.5278 13.547 15.9871C13.636 15.8918 13.7327 15.9036 13.8466 15.9473C14.5786 16.2279 15.3143 16.4967 16.0448 16.781C16.2093 16.8452 16.3078 16.8437 16.4389 16.6911C17.0585 15.9685 17.6946 15.2612 18.3292 14.5527C18.4244 14.4464 18.4599 14.3804 18.316 14.2839C18.1842 14.1958 18.0725 14.0751 17.9513 13.9688C17.9135 13.9358 17.8722 13.9027 17.8963 13.8431C17.9161 13.7945 17.9604 13.7941 18.004 13.7896C18.3797 13.752 18.7551 13.7121 19.1916 13.6669C19.297 13.6332 19.3622 13.7049 19.3721 13.8777C19.3952 14.268 19.4307 14.6579 19.46 15.0478C19.4636 15.0972 19.4735 15.1534 19.4164 15.18Z" fill="#AEB100"/>
<path id="Vector_38" d="M16.9999 20.7426C17.0006 20.8937 16.9453 20.9594 16.7948 20.9575C16.3495 20.9522 15.9046 20.9525 15.4597 20.9586C15.2996 20.9605 15.2458 20.8914 15.2491 20.7304C15.2564 20.3576 15.2513 19.9847 15.2513 19.6115C15.2517 19.6115 15.2517 19.6115 15.252 19.6115C15.252 19.2387 15.2564 18.8658 15.2498 18.493C15.2473 18.3377 15.3051 18.2766 15.4538 18.2781C15.8987 18.283 16.344 18.2838 16.789 18.2785C16.9343 18.277 17.0002 18.3282 16.9995 18.4862C16.9959 19.2383 16.9966 19.9904 16.9999 20.7426Z" fill="#AEB100"/>
<path id="Vector_39" d="M12.6685 14.2155C12.395 14.2 12.12 14.2114 11.8457 14.2114C11.5652 14.2114 11.2843 14.2015 11.0045 14.2151C10.8518 14.2227 10.8749 14.1316 10.8738 14.0371C10.8727 13.9395 10.8588 13.8586 11.0071 13.8613C11.5619 13.8712 12.1167 13.8723 12.6711 13.8609C12.8297 13.8579 12.7952 13.9509 12.7967 14.0397C12.7982 14.1316 12.8245 14.2246 12.6685 14.2155Z" fill="#AEB100"/>
<path id="Vector_40" d="M11.9603 14.8655C11.9428 14.9259 11.9058 14.9225 11.8633 14.9225C11.5649 14.9229 11.2664 14.924 10.968 14.9225C10.8167 14.9214 10.883 14.7983 10.8771 14.7258C10.8716 14.6552 10.8365 14.55 10.9749 14.5546C11.121 14.5591 11.2671 14.5557 11.4132 14.5557C11.5231 14.5557 11.6326 14.5561 11.7421 14.5557C11.9519 14.555 12.0208 14.6563 11.9603 14.8655Z" fill="#AEB100"/>
</g>
</g>
</svg>
