<svg width="32" height="32" viewBox="0 0 32 32" fill="none" xmlns="http://www.w3.org/2000/svg">
<g id="Group 427319773">
<g id="Group 427319164">
<circle id="Ellipse 974" opacity="0.25" cx="16" cy="16" r="16" fill="#D0AF00"/>
</g>
<g id="Group 427319457">
<path id="Vector" d="M25.8845 17.923C25.6451 17.8247 25.4241 17.6897 25.1847 17.6161C24.8225 17.4995 24.6016 17.303 24.6322 16.8918C24.6384 16.8182 24.6261 16.7445 24.6077 16.677C24.577 16.5665 24.6138 16.4745 24.6814 16.3824C24.8655 16.1185 25.0435 15.8484 25.2277 15.5845C25.289 15.4986 25.289 15.4433 25.2277 15.3635C24.9207 14.9339 24.6261 14.5043 24.3253 14.0685C24.2639 13.9826 24.2148 13.9642 24.1166 14.0071C23.8158 14.136 23.5028 14.2342 23.202 14.3692C23.0179 14.449 22.8644 14.4613 22.7048 14.3201C22.582 14.2097 22.4347 14.1299 22.2997 14.0439C22.2137 13.9887 22.1708 13.9273 22.1585 13.823C22.1217 13.5345 22.0541 13.2522 22.0235 12.9637C22.005 12.798 21.9314 12.7673 21.7902 12.7489C21.3482 12.6998 20.9001 12.6568 20.4582 12.577C20.2863 12.5464 20.2249 12.6016 20.1574 12.7366C20.0162 13.0251 19.8628 13.3074 19.7154 13.5959C19.6725 13.6757 19.6234 13.7309 19.5313 13.7493C19.3349 13.7984 19.1384 13.8598 18.9482 13.9212C18.8561 13.9519 18.7886 13.9273 18.7149 13.8782C18.4387 13.6818 18.1625 13.4977 17.8862 13.3074C17.8248 13.2645 17.7696 13.2215 17.6775 13.2767C17.2847 13.4916 16.8857 13.6941 16.4928 13.8966C16.4069 13.9396 16.3823 13.9826 16.4192 14.0808C16.5112 14.3263 16.5726 14.5841 16.6708 14.8234C16.7813 15.0873 16.7875 15.3144 16.5972 15.5477C16.499 15.6643 16.4314 15.7993 16.3639 15.9343C16.3087 16.0448 16.2227 16.0878 16.1 16.1062C15.7685 16.1553 15.437 16.2105 15.1056 16.2658C15.038 16.2781 14.9828 16.2842 14.9705 16.3763C14.9214 16.9102 14.8662 17.4504 14.8048 17.9843C14.7925 18.0825 14.8416 18.1071 14.9214 18.1316C15.2099 18.2237 15.4923 18.3219 15.7808 18.414C15.8483 18.4385 15.9097 18.4631 15.9342 18.5429C16.0263 18.8436 16.1307 19.1443 16.2227 19.4451C16.2412 19.5126 16.2534 19.5801 16.1859 19.6415C15.9158 19.8931 15.7255 20.2184 15.5107 20.513C15.4432 20.6051 15.4493 20.6665 15.5107 20.7524C15.7562 21.1268 16.0018 21.5012 16.2289 21.8817C16.3087 22.0168 16.3823 22.0413 16.5235 21.98C16.9164 21.8142 17.3154 21.6669 17.7082 21.5012C17.8064 21.4583 17.874 21.4644 17.9537 21.538C18.1133 21.6853 18.2852 21.8204 18.451 21.9554C18.5308 22.0168 18.5676 22.0843 18.5737 22.1825C18.5921 22.5201 18.629 22.8515 18.6535 23.1829C18.6597 23.3118 18.7088 23.3609 18.8377 23.3732C19.3287 23.4346 19.8137 23.5144 20.2986 23.5942C20.4029 23.6126 20.4643 23.588 20.5073 23.4775C20.5687 23.318 20.6485 23.1645 20.716 23.0111C20.9799 22.428 20.9799 22.4341 21.6061 22.293C21.7165 22.2684 21.8025 22.2807 21.9007 22.3359C22.2076 22.5139 22.5207 22.6858 22.8276 22.8576C22.8705 22.8822 22.9074 22.9006 22.9565 22.9313C22.9994 22.9067 23.0486 22.8822 23.0915 22.8515C23.4475 22.6121 23.7974 22.3666 24.1535 22.1334C24.2578 22.0597 24.2824 21.9922 24.2394 21.8756C24.135 21.581 24.0491 21.2741 23.957 20.9734C23.9141 20.8261 24.178 20.1264 24.3131 20.0589C24.3683 20.0282 24.442 20.0282 24.5033 20.0098C24.8655 19.9361 25.2215 19.8502 25.5837 19.7827C25.688 19.7643 25.7249 19.7213 25.7371 19.6231C25.8169 19.1137 25.9029 18.5981 25.995 18.0887C26.0134 18.015 25.9827 17.9659 25.8845 17.923ZM22.8521 18.7331C22.5759 19.6906 21.8946 20.243 20.937 20.4639C20.8633 20.4824 20.7835 20.4946 20.7037 20.5008C20.6055 20.513 20.5073 20.513 20.4029 20.5192C19.5743 20.5069 18.8806 20.2 18.365 19.5433C17.6161 18.592 17.7144 17.2724 18.5737 16.4254C19.562 15.4556 21.2071 15.4372 22.1953 16.3947C22.8644 17.0391 23.1099 17.8309 22.8521 18.7331Z" fill="#8E9000" fill-opacity="0.8"/>
<path id="Vector_2" d="M15.2774 19.8257C15.1853 19.4513 15.0994 19.0707 15.0196 18.6963C15.0012 18.6104 14.9644 18.5797 14.8846 18.5613C14.5838 18.4876 14.2892 18.4017 13.9884 18.3281C13.9024 18.3097 13.8533 18.2728 13.8165 18.1869C13.5341 17.61 13.5341 17.61 13.7735 17.0269C13.7981 16.9716 13.8165 16.9164 13.8411 16.8612C13.8902 16.7445 13.9393 16.6279 13.9822 16.5175C13.9884 16.4499 13.9331 16.4254 13.8963 16.3886C13.6446 16.1615 13.3991 15.9405 13.1474 15.7134C12.816 15.4127 12.7914 15.382 12.4477 15.652C12.0487 15.9651 11.6558 15.9896 11.2139 15.8055C11.1279 15.7687 11.0727 15.7318 11.042 15.6459C10.9376 15.339 10.8149 15.0444 10.7228 14.7375C10.6798 14.5902 10.6062 14.5657 10.465 14.578C10.0967 14.6209 9.73452 14.6639 9.36622 14.6946C8.97951 14.7253 8.96109 14.7191 8.88743 15.0997C8.78922 15.5784 8.6419 16.008 8.13242 16.1983C8.12628 16.1983 8.12014 16.2044 8.114 16.2106C8.04034 16.2842 7.96668 16.2658 7.88075 16.229C7.56769 16.0817 7.2485 15.9405 6.93545 15.7871C6.84337 15.738 6.78813 15.738 6.7206 15.8239C6.42596 16.186 6.12519 16.542 5.81827 16.898C5.75075 16.9778 5.74461 17.033 5.79372 17.1189C5.96559 17.4197 6.13132 17.7266 6.29706 18.0335C6.32775 18.0826 6.37686 18.1378 6.34617 18.1992C6.19271 18.5122 6.16815 18.905 5.73233 19.0155C5.51749 19.0707 5.32107 19.1935 5.1185 19.2794C5.0387 19.304 4.9896 19.3408 5.00187 19.4451C5.05098 19.8563 5.08781 20.2676 5.13078 20.6788C5.13692 20.7647 5.19216 20.7831 5.25354 20.8077C5.43156 20.8752 5.60957 20.9611 5.79372 20.998C6.21726 21.0777 6.46893 21.3294 6.59784 21.7283C6.59784 21.7345 6.60398 21.7406 6.61011 21.7467C6.66536 21.8204 6.65308 21.8818 6.61625 21.9616C6.48735 22.2255 6.36458 22.4955 6.23568 22.7595C6.18657 22.8577 6.18657 22.919 6.27864 22.9927C6.62239 23.2812 6.96 23.5696 7.29761 23.8704C7.38968 23.9502 7.44493 23.9379 7.53086 23.8704C7.77639 23.6863 8.0342 23.5144 8.28588 23.3303C8.3534 23.2812 8.42092 23.2566 8.50686 23.275C8.69714 23.3119 8.89357 23.3548 9.09 23.3732C9.20049 23.3855 9.24345 23.4407 9.27415 23.5328C9.39691 23.9011 9.52582 24.2632 9.64245 24.6376C9.67928 24.7542 9.72838 24.791 9.85115 24.7726C10.1028 24.7297 10.3545 24.6867 10.6123 24.656C11.2445 24.5762 11.2323 24.5762 11.3919 23.9747C11.4471 23.7599 11.3612 23.4898 11.5699 23.3425C11.754 23.2137 11.9873 23.1584 12.196 23.0602C12.2881 23.0172 12.3679 23.0295 12.4599 23.0725C12.7177 23.1952 12.9878 23.3119 13.2456 23.4407C13.3439 23.4898 13.3991 23.496 13.4789 23.3978C13.749 23.0663 14.0313 22.7472 14.3137 22.428C14.3812 22.3482 14.3874 22.2991 14.3321 22.2071C14.1664 21.9493 14.0129 21.6792 13.8533 21.4153C13.7981 21.3294 13.7981 21.2619 13.8533 21.1698C14.0805 20.7893 14.369 20.4824 14.7802 20.2921C14.9214 20.2246 15.0503 20.1264 15.1915 20.0589C15.2713 20.0098 15.3081 19.9484 15.2774 19.8257ZM10.1396 21.9063C8.8506 21.9063 7.7764 20.8261 7.78253 19.5372C7.78867 18.3465 8.75239 17.3829 9.94936 17.389C11.2261 17.389 12.3003 18.457 12.3065 19.7397C12.3126 20.9427 11.3428 21.9125 10.1396 21.9063Z" fill="#8E9000" fill-opacity="0.8"/>
<path id="Vector_3" d="M17.6345 12.1475C17.567 11.9818 17.3767 11.8468 17.2048 11.7608C16.8488 11.5828 16.8304 11.3005 16.8672 10.9629C16.8857 10.8095 16.9286 10.6929 17.0637 10.6008C17.2294 10.4842 17.3829 10.3492 17.5486 10.2264C17.6407 10.1589 17.6775 10.1037 17.6223 9.98705C17.4811 9.68017 17.3522 9.36101 17.2233 9.04185C17.1803 8.93751 17.125 8.90682 17.0146 8.9191C16.7567 8.94365 16.5051 8.95592 16.2473 8.97433C16.1675 8.98047 16.1184 8.9682 16.0693 8.88841C15.8851 8.58152 15.7255 8.27464 15.7501 7.8941C15.7623 7.7468 15.7255 7.59336 15.7194 7.43992C15.7194 7.34171 15.6825 7.29875 15.5905 7.28034C15.4063 7.24351 15.2099 7.21282 15.038 7.13917C14.6636 6.97959 14.3812 7.06552 14.1725 7.4215C14.148 7.45833 14.105 7.48902 14.0866 7.52584C13.9577 7.73453 13.7797 7.77135 13.5403 7.75908C13.2702 7.75294 13.0983 7.65474 12.951 7.45219C12.8528 7.31716 12.73 7.20669 12.6318 7.07779C12.5704 6.99801 12.509 6.97959 12.417 7.02256C12.0855 7.16372 11.754 7.29875 11.4225 7.4215C11.2998 7.46447 11.2814 7.52584 11.2936 7.63632C11.3182 7.85114 11.3305 8.06596 11.3489 8.28692C11.355 8.35443 11.355 8.41581 11.2998 8.46491C11.1832 8.58766 11.0665 8.71655 10.956 8.84544C10.9069 8.90682 10.8517 8.91296 10.778 8.90068C10.5018 8.86386 10.2194 8.83931 9.93707 8.79634C9.82658 8.77793 9.78975 8.81476 9.75292 8.91296C9.62402 9.26894 9.48897 9.62493 9.34779 9.97477C9.31096 10.0791 9.32324 10.1405 9.40918 10.2141C9.58719 10.3614 9.75906 10.5149 9.93093 10.6683C10.0169 10.7481 10.1519 11.3189 10.0967 11.4294C10.0783 11.4662 10.0353 11.4908 9.99846 11.5215C9.77748 11.6995 9.5565 11.8775 9.33552 12.0493C9.25572 12.1045 9.24344 12.1536 9.28641 12.2396C9.39076 12.4544 9.4767 12.6753 9.56877 12.8902C9.64243 13.0559 9.67926 13.2768 9.80817 13.375C9.94935 13.4855 10.1765 13.375 10.3606 13.3812C10.5141 13.3812 10.6614 13.3812 10.8149 13.3812C10.8762 13.3812 10.9315 13.375 10.9744 13.4303C11.177 13.6697 11.4225 13.8661 11.3366 14.2466C11.2936 14.4369 11.22 14.7008 11.3305 14.8358C11.4471 14.977 11.6988 15.0077 11.8952 15.0813C12.0793 15.1488 12.2819 15.29 12.4476 15.2532C12.6134 15.2163 12.7607 15.0261 12.8835 14.8726C13.1044 14.6026 13.3807 14.5166 13.7121 14.5473C13.8104 14.5596 13.884 14.578 13.9454 14.6578C14.0866 14.8481 14.24 15.0261 14.3812 15.2163C14.4426 15.3023 14.504 15.3084 14.5961 15.2716C14.8477 15.1611 15.1055 15.0568 15.3572 14.9524C15.7378 14.799 15.7501 14.7928 15.6703 14.4C15.5966 14.0134 15.5659 13.6635 15.8851 13.3566C15.9895 13.2584 16.0693 13.2155 16.2043 13.2339C16.5112 13.283 16.8181 13.3075 17.1189 13.3628C17.2294 13.3812 17.2601 13.3444 17.2846 13.2584C17.3399 13.0682 17.4135 12.884 17.4688 12.6999C17.5425 12.5158 17.702 12.3132 17.6345 12.1475ZM13.884 12.9884C13.7306 13.0191 13.5771 13.0497 13.4605 13.0375C12.4047 13.0436 11.5883 12.3071 11.5023 11.3128C11.4225 10.3921 12.1714 9.48376 13.1413 9.32418C14.1602 9.15846 15.0994 9.72927 15.3511 10.6622C15.6396 11.681 14.9582 12.7613 13.884 12.9884Z" fill="#8E9000" fill-opacity="0.8"/>
</g>
</g>
</svg>
